<svg version="1.1" xmlns="http://www.w3.org/2000/svg" xmlns:xlink="http://www.w3.org/1999/xlink" width="79.23077" height="79.23077" viewBox="0,0,79.23077,79.23077"><g transform="translate(-200.38463,-140.38461)"><g data-paper-data="{&quot;isPaintingLayer&quot;:true}" fill-rule="nonzero" stroke-linejoin="miter" stroke-miterlimit="10" stroke-dasharray="" stroke-dashoffset="0" style="mix-blend-mode: normal"><path d="M226.12762,209.01909c0,0 5.30634,-5.32563 6.16622,-9.28855c0.8555,-3.94275 -1.69125,-13.75757 -1.69125,-13.75757l18.57116,0.16941c0,0 -2.01877,8.8715 -1.28418,12.94043c0.67794,3.7552 5.75915,9.9363 5.75915,9.9363z" fill="#000000" stroke="#ffffff" stroke-width="2" stroke-linecap="butt"/><path d="M222.71541,216.53247v-10.0687h34.5692v10.0687z" fill="#000000" stroke="#ffffff" stroke-width="2" stroke-linecap="butt"/><path d="M228.14135,172.45394c0,-6.54938 5.30932,-11.85869 11.85869,-11.85869c6.54938,0 11.85869,5.30932 11.85869,11.85869c0,6.54938 -5.30932,11.85869 -11.85869,11.85869c-6.54938,0 -11.85869,-5.30932 -11.85869,-11.85869z" fill="#000000" stroke="#ffffff" stroke-width="2" stroke-linecap="butt"/><path d="M226.23948,188.65793v-6.71247h27.52112v6.71247z" fill="#000000" stroke="#ffffff" stroke-width="2" stroke-linecap="butt"/><path d="M200.38463,219.61538v-79.23077h79.23077v79.23077z" fill="none" stroke="none" stroke-width="0" stroke-linecap="butt"/><g stroke="#ffffff" stroke-width="1.5"><path d="M230.91578,163.77366c0,0 -1.41119,-4.91444 -2.77875,-6.89105c-0.65899,-0.95246 -1.20925,-3.37724 -2.45254,-4.26372c-0.63986,-0.45622 -1.18274,0.67906 -1.86787,1.68764c-1.01567,1.49514 -2.36917,3.80121 -2.36917,3.80121c0,0 0.03705,-3.12059 0.63298,-5.48442c0.65828,-2.61118 1.20075,-8.59304 2.30599,-8.71174c1.08492,-0.11652 3.01461,-0.93245 5.34932,-0.09785c2.73135,0.97639 10.56957,9.22467 10.56957,9.22467l-1.17871,6.936c0,0 -2.25406,-0.12218 -3.45875,0.43524c-1.47655,0.68322 -4.75207,3.36401 -4.75207,3.36401z" fill="#35008b" stroke-linecap="butt"/><g><path d="M221.85669,163.11206c-1.45317,0 -2.63119,-1.4239 -2.63119,-3.18038c0,-1.75648 1.17802,-3.18038 2.63119,-3.18038c1.45317,0 2.6312,1.4239 2.6312,3.18038c0,1.75647 -1.17803,3.18038 -2.6312,3.18038z" fill="#000000" stroke-linecap="butt"/><path d="M221.17869,159.38661l2.47737,2.31" fill="none" stroke-linecap="round"/></g><path d="M244.83133,160.41005c-1.20469,-0.55742 -3.45875,-0.43524 -3.45875,-0.43524l-1.17871,-6.936c0,0 7.83822,-8.24827 10.56957,-9.22467c2.33471,-0.8346 4.26441,-0.01867 5.34932,0.09785c1.10524,0.1187 1.64771,6.10056 2.30599,8.71174c0.59593,2.36383 0.63298,5.48442 0.63298,5.48442c0,0 -1.3535,-2.30607 -2.36917,-3.80121c-0.68513,-1.00858 -1.22801,-2.14386 -1.86787,-1.68764c-1.24329,0.88647 -1.79355,3.31125 -2.45253,4.26372c-1.36756,1.97661 -2.77875,6.89105 -2.77875,6.89105c0,0 -3.27552,-2.68079 -4.75207,-3.36402z" data-paper-data="{&quot;index&quot;:null}" fill="#640000" stroke-linecap="butt"/><g data-paper-data="{&quot;index&quot;:null}"><path d="M258.94776,162.38104c-1.45317,0 -2.6312,-1.42391 -2.6312,-3.18038c0,-1.75648 1.17803,-3.18037 2.6312,-3.18037c1.45317,0 2.6312,1.4239 2.6312,3.18037c0,1.75647 -1.17802,3.18038 -2.6312,3.18038z" fill="#000000" stroke-linecap="butt"/><path d="M260.4079,161.3756l-1.91111,-2.99444" fill="none" stroke-linecap="round"/></g><path d="M229.59408,167.21016c0,0 -0.55101,-6.9767 -1.81979,-10.09101c-0.61138,-1.50068 -0.69212,-4.88672 -2.08575,-6.52619c-0.71723,-0.84375 -1.72729,0.43311 -2.89013,1.4893c-1.72384,1.56572 -4.10378,4.06276 -4.10378,4.06276c0,0 0.87156,-4.07051 2.27509,-6.93509c1.55039,-3.16432 4.24396,-5.78546 5.72199,-5.51494c1.45086,0.26554 4.57322,5.60692 7.40918,7.59907c3.31776,2.33059 6.28085,1.33889 6.28085,1.33889l0.56745,13.06746c0,0 -2.98408,0.12895 -4.70802,0.39438c-3.03407,-0.17703 -6.64709,1.11536 -6.64709,1.11536z" fill="#640000" stroke-linecap="butt"/><path d="M243.33692,165.91283c-1.72393,-0.26544 -2.28281,-0.13013 -2.28281,-0.13013l-0.93666,-13.23123c0,0 2.96309,0.9917 6.28085,-1.33889c2.83596,-1.99215 5.95832,-7.33352 7.40918,-7.59907c1.47804,-0.27052 4.1716,2.35062 5.72199,5.51494c1.40353,2.86457 2.27508,6.93508 2.27508,6.93508c0,0 -2.37994,-2.49704 -4.10378,-4.06275c-1.16284,-1.05619 -2.1729,-2.33306 -2.89013,-1.4893c-1.39363,1.63947 -1.47437,5.0255 -2.08575,6.52619c-1.26878,3.11432 -1.81979,10.09102 -1.81979,10.09102c0,0 -4.86308,-1.4431 -7.56818,-1.21583z" data-paper-data="{&quot;index&quot;:null}" fill="#35008b" stroke-linecap="butt"/><g><path d="M214.68766,155.8004c0,-1.75647 1.17803,-3.18038 2.6312,-3.18038c1.45317,0 2.6312,1.4239 2.6312,3.18038c0,1.75647 -1.17803,3.18038 -2.6312,3.18038c-1.45317,0 -2.6312,-1.4239 -2.6312,-3.18038z" fill="#000000" stroke-linecap="butt"/><path d="M217.76983,154.98087l-1.91111,2.99444" fill="none" stroke-linecap="round"/></g><g data-paper-data="{&quot;index&quot;:null}"><path d="M260.05003,156.97569c0,-1.75648 1.17803,-3.18038 2.6312,-3.18038c1.45317,0 2.6312,1.4239 2.6312,3.18038c0,1.75648 -1.17802,3.18037 -2.6312,3.18037c-1.45317,0 -2.6312,-1.4239 -2.6312,-3.18037z" fill="#000000" stroke-linecap="butt"/><path d="M263.35925,156.43059l-2.47737,2.31" fill="none" stroke-linecap="round"/></g></g></g></g></svg>