<svg version="1.1" xmlns="http://www.w3.org/2000/svg" xmlns:xlink="http://www.w3.org/1999/xlink" width="79.23077" height="79.23077" viewBox="0,0,79.23077,79.23077"><g transform="translate(-200.38463,-140.38461)"><g data-paper-data="{&quot;isPaintingLayer&quot;:true}" fill-rule="nonzero" stroke-linejoin="miter" stroke-miterlimit="10" stroke-dasharray="" stroke-dashoffset="0" style="mix-blend-mode: normal"><g stroke="#ffffff" stroke-width="1.5"><path d="M229.65574,164.48378c0,0 -1.60692,-5.59609 -3.16417,-7.84685c-0.75039,-1.08456 -1.37698,-3.84568 -2.79271,-4.8551c-0.72861,-0.5195 -1.34679,0.77325 -2.12695,1.92172c-1.15655,1.70252 -2.69778,4.32844 -2.69778,4.32844c0,0 0.04219,-3.55342 0.72077,-6.24512c0.74959,-2.97336 1.3673,-9.78492 2.62584,-9.92008c1.2354,-0.13268 3.43274,-1.06178 6.09128,-0.11142c3.1102,1.11182 12.03559,10.50415 12.03559,10.50415l-1.3422,7.89804c0,0 -2.5667,-0.13913 -3.93848,0.49561c-1.68135,0.77799 -5.4112,3.83061 -5.4112,3.83061z" fill="#35008b" stroke-linecap="butt"/><g><path d="M219.34014,163.73043c-1.65473,0 -2.99614,-1.6214 -2.99614,-3.6215c0,-2.00011 1.34142,-3.62151 2.99614,-3.62151c1.65473,0 2.99615,1.6214 2.99615,3.62151c0,2.0001 -1.34142,3.6215 -2.99615,3.6215z" fill="#000000" stroke-linecap="butt"/><path d="M218.56809,159.48824l2.82099,2.6304" fill="none" stroke-linecap="round"/></g><path d="M245.50141,160.65364c-1.37178,-0.63474 -3.93848,-0.49561 -3.93848,-0.49561l-1.3422,-7.89804c0,0 8.9254,-9.39233 12.0356,-10.50415c2.65854,-0.95036 4.85589,-0.02126 6.09129,0.11142c1.25853,0.13516 1.87625,6.94672 2.62584,9.92008c0.67859,2.69169 0.72077,6.24512 0.72077,6.24512c0,0 -1.54124,-2.62593 -2.69778,-4.32844c-0.78016,-1.14847 -1.39834,-2.44122 -2.12695,-1.92172c-1.41573,1.00943 -2.04232,3.77053 -2.7927,4.8551c-1.55725,2.25076 -3.16417,7.84685 -3.16417,7.84685c0,0 -3.72984,-3.05263 -5.41119,-3.83061z" data-paper-data="{&quot;index&quot;:null}" fill="#640000" stroke-linecap="butt"/><g data-paper-data="{&quot;index&quot;:null}"><path d="M261.57582,162.89801c-1.65473,0 -2.99615,-1.62141 -2.99615,-3.62151c0,-2.00011 1.34142,-3.62149 2.99615,-3.62149c1.65473,0 2.99615,1.62139 2.99615,3.62149c0,2.0001 -1.34142,3.62151 -2.99615,3.62151z" fill="#000000" stroke-linecap="butt"/><path d="M263.23849,161.75311l-2.17619,-3.40978" fill="none" stroke-linecap="round"/></g><path d="M228.15072,168.39694c0,0 -0.62744,-7.94438 -2.0722,-11.49066c-0.69618,-1.70883 -0.78812,-5.56452 -2.37505,-7.43138c-0.81672,-0.96078 -1.96687,0.49319 -3.291,1.69587c-1.96294,1.78289 -4.67298,4.62627 -4.67298,4.62627c0,0 0.99244,-4.6351 2.59065,-7.897c1.76543,-3.60322 4.8326,-6.58791 6.51565,-6.27987c1.6521,0.30238 5.20753,6.38462 8.43685,8.65308c3.77794,2.65385 7.15202,1.52459 7.15202,1.52459l0.64615,14.87995c0,0 -3.39798,0.14683 -5.36103,0.44908c-3.4549,-0.20159 -7.56906,1.27007 -7.56906,1.27007z" fill="#640000" stroke-linecap="butt"/><path d="M243.79972,166.91967c-1.96305,-0.30225 -2.59944,-0.14818 -2.59944,-0.14818l-1.06658,-15.06643c0,0 3.37408,1.12925 7.15202,-1.52459c3.22932,-2.26846 6.78475,-8.3507 8.43685,-8.65308c1.68305,-0.30804 4.75021,2.67666 6.51565,6.27988c1.5982,3.26189 2.59064,7.89699 2.59064,7.89699c0,0 -2.71004,-2.84338 -4.67298,-4.62627c-1.32413,-1.20269 -2.47429,-2.65666 -3.291,-1.69587c-1.58693,1.86686 -1.67886,5.72255 -2.37505,7.43138c-1.44476,3.54628 -2.0722,11.49067 -2.0722,11.49067c0,0 -5.5376,-1.64327 -8.61791,-1.38447z" data-paper-data="{&quot;index&quot;:null}" fill="#35008b" stroke-linecap="butt"/><g><path d="M211.17674,155.40461c0,-2.0001 1.34142,-3.6215 2.99615,-3.6215c1.65473,0 2.99615,1.6214 2.99615,3.6215c0,2.0001 -1.34142,3.6215 -2.99615,3.6215c-1.65473,0 -2.99615,-1.6214 -2.99615,-3.6215z" fill="#000000" stroke-linecap="butt"/><path d="M214.68642,154.47142l-2.17619,3.40977" fill="none" stroke-linecap="round"/></g><g data-paper-data="{&quot;index&quot;:null}"><path d="M262.83098,156.74293c0,-2.00011 1.34142,-3.62151 2.99615,-3.62151c1.65473,0 2.99615,1.6214 2.99615,3.62151c0,2.00011 -1.34142,3.62149 -2.99615,3.62149c-1.65473,0 -2.99615,-1.62139 -2.99615,-3.62149z" fill="#000000" stroke-linecap="butt"/><path d="M266.5992,156.12222l-2.82098,2.6304" fill="none" stroke-linecap="round"/></g></g><path d="M228.37973,207.59821v-34.68903h22.4001v34.68903z" fill="#000000" stroke="#ffffff" stroke-width="2" stroke-linecap="butt"/><path d="M221.69081,217.86492v-13.8445h35.77793v13.8445z" fill="#000000" stroke="#ffffff" stroke-width="2" stroke-linecap="butt"/><path d="M220.21303,172.90917v-18.04452l7.63697,0.0671l0.08249,7.3996h7.00003v-7.4667h8.24448l0.15556,7.4667h7.15559v-7.4667h8.45839v18.04452z" fill="#000000" stroke="#ffffff" stroke-width="2" stroke-linecap="butt"/><path d="M224.33527,204.02041l1.71112,-6.84448h27.06679l1.55556,6.84448z" fill="#000000" stroke="#ffffff" stroke-width="2" stroke-linecap="butt"/><path d="M254.66871,172.90917l-1.55555,6.84448h-27.06679l-1.71111,-6.84448z" data-paper-data="{&quot;index&quot;:null}" fill="#000000" stroke="#ffffff" stroke-width="2" stroke-linecap="butt"/><path d="M200.38463,219.61538v-79.23077h79.23077v79.23077z" fill="none" stroke="none" stroke-width="0" stroke-linecap="butt"/></g></g></svg>