<svg version="1.1" xmlns="http://www.w3.org/2000/svg" xmlns:xlink="http://www.w3.org/1999/xlink" width="79.23077" height="80.28108" viewBox="0,0,79.23077,80.28108"><g transform="translate(-200.38463,-139.57395)"><g data-paper-data="{&quot;isPaintingLayer&quot;:true}" fill-rule="nonzero" stroke-linejoin="miter" stroke-miterlimit="10" stroke-dasharray="" stroke-dashoffset="0" style="mix-blend-mode: normal"><path d="M225.79401,204.81664c0,0 3.61299,-12.84073 6.54301,-18.2665c2.4959,-4.62188 9.94447,-12.26484 9.94447,-12.26484c0,0 -5.93148,-2.08283 -10.51307,-1.46194c-4.59372,0.62253 -7.55422,4.52 -10.17831,2.70008c-4.88866,-3.39052 -3.59194,-6.56234 0.68477,-11.24114c2.00875,-2.19761 5.97885,-3.11141 7.1033,-6.26508c1.07968,-3.02811 5.00688,-4.64805 6.35428,-5.2161c0.35421,-0.14933 0.70632,-2.28474 0.70632,-2.28474c0,0 3.40232,-0.6295 3.99652,-1.71397c0.87619,-1.59914 0.69551,-3.96444 0.69551,-3.96444c0,0 1.68838,1.36917 4.35849,4.30388c4.31988,3.18487 10.27804,6.45459 12.72139,10.56048c5.01301,8.42405 3.26603,18.43981 3.0156,21.6059c-2.7102,7.35609 -7.76462,23.50842 -7.76462,23.50842z" fill="#000000" stroke="#ffffff" stroke-width="2" stroke-linecap="butt"/><path d="M217.93451,218.85503v-16.92073h44.1311v16.92073z" fill="#000000" stroke="#ffffff" stroke-width="2" stroke-linecap="butt"/><path d="M200.38463,219.61538v-79.23077h79.23077v79.23077z" fill="none" stroke="none" stroke-width="0" stroke-linecap="butt"/><g stroke="#ffffff" stroke-width="1.5"><path d="M248.94559,153.83385c0,0 1.95288,-3.2148 2.33921,-4.94031c0.18616,-0.83146 1.22256,-2.33871 1.08153,-3.45314c-0.07258,-0.57354 -0.95721,-0.30064 -1.8443,-0.16786c-1.31505,0.19683 -3.23708,0.6156 -3.23708,0.6156c0,0 1.70559,-1.53686 3.28088,-2.39402c1.74013,-0.94685 5.24479,-3.63798 5.86037,-3.09967c0.60427,0.52841 2.00813,1.1646 2.72173,2.84322c0.83483,1.9638 0.28606,10.31658 0.28606,10.31658l-4.33793,2.82319c0,0 -1.05852,-1.27959 -1.96091,-1.65278c-1.10604,-0.45741 -4.18957,-0.89081 -4.18957,-0.89081z" fill="#35008b" stroke-linecap="butt"/><g><path d="M244.7836,148.6061c-0.725,-0.78564 -0.54291,-2.13292 0.4067,-3.00924c0.94962,-0.87632 2.30716,-0.94984 3.03216,-0.1642c0.725,0.78564 0.54291,2.13292 -0.4067,3.00925c-0.94962,0.87632 -2.30716,0.94983 -3.03216,0.1642z" fill="#000000" stroke-linecap="butt"/><path d="M246.45946,146.38087l-0.01289,2.49184" fill="none" stroke-linecap="round"/></g><path d="M257.70668,159.67898c-0.29967,-0.9294 -1.4903,-2.08707 -1.4903,-2.08707l3.16179,-4.0977c0,0 8.36989,0.12249 10.26046,1.11203c1.61602,0.84584 2.13765,2.29618 2.61593,2.94086c0.48724,0.65675 -2.47613,3.93444 -3.55941,5.59308c-0.98066,1.50152 -2.64928,3.07844 -2.64928,3.07844c0,0 0.57147,-1.88228 0.87307,-3.17732c0.20345,-0.8736 0.54638,-1.7335 -0.0195,-1.85182c-1.09955,-0.2299 -2.68501,0.68236 -3.52872,0.80128c-1.75092,0.24679 -5.1119,1.93571 -5.1119,1.93571c0,0 -0.18485,-3.10834 -0.55214,-4.24749z" data-paper-data="{&quot;index&quot;:null}" fill="#640000" stroke-linecap="butt"/><g data-paper-data="{&quot;index&quot;:null}"><path d="M263.68391,168.29419c-0.725,-0.78564 -0.54291,-2.13293 0.4067,-3.00925c0.94962,-0.87632 2.30716,-0.94983 3.03216,-0.16419c0.725,0.78564 0.54292,2.13292 -0.4067,3.00924c-0.94962,0.87632 -2.30716,0.94984 -3.03216,0.1642z" fill="#000000" stroke-linecap="butt"/><path d="M264.95598,168.58197l0.66543,-2.52717" fill="none" stroke-linecap="round"/></g><path d="M246.42828,154.8338c0,0 3.49696,-3.77864 4.54767,-6.01835c0.5063,-1.07924 2.29664,-2.81222 2.4877,-4.38361c0.09833,-0.80872 -1.09592,-0.71775 -2.24709,-0.81948c-1.70653,-0.15082 -4.24389,-0.1917 -4.24389,-0.1917c0,0 2.6355,-1.55962 4.88443,-2.22999c2.48425,-0.74051 5.24519,-0.59198 5.83634,0.34207c0.58029,0.91687 -0.74969,5.2698 -0.41183,7.79693c0.39526,2.95646 2.40973,4.06364 2.40973,4.06364l-6.78165,6.82627c0,0 -1.5585,-1.54897 -2.56209,-2.34857c-1.41802,-1.72865 -3.9193,-3.0372 -3.9193,-3.0372z" fill="#640000" stroke-linecap="butt"/><path d="M253.9861,161.61644c-0.71658,-1.06445 -1.06856,-1.2991 -1.06856,-1.2991l6.68599,-7.10759c0,0 0.94216,2.09673 3.85743,2.72768c2.49192,0.53932 6.93744,-0.43748 7.80486,0.21443c0.88366,0.66412 0.81042,3.42807 -0.12682,5.84498c-0.84846,2.18796 -2.6143,4.68997 -2.6143,4.68997c0,0 0.16262,-2.53248 0.14906,-4.2456c-0.00914,-1.15562 0.17726,-2.33874 -0.63674,-2.30554c-1.58165,0.0645 -3.45255,1.71018 -4.5689,2.12834c-2.31672,0.86781 -6.36349,4.05066 -6.36349,4.05066c0,0 -1.64604,-3.34914 -3.11851,-4.69823z" data-paper-data="{&quot;index&quot;:null}" fill="#35008b" stroke-linecap="butt"/><g><path d="M245.15986,141.08238c0.94962,-0.87632 2.30716,-0.94983 3.03216,-0.1642c0.725,0.78564 0.54291,2.13292 -0.4067,3.00924c-0.94962,0.87632 -2.30716,0.94983 -3.03216,0.1642c-0.725,-0.78564 -0.54291,-2.13292 0.4067,-3.00924z" fill="#000000" stroke-linecap="butt"/><path d="M247.14065,142.33985l-2.57238,0.46074" fill="none" stroke-linecap="round"/></g><g data-paper-data="{&quot;index&quot;:null}"><path d="M267.15619,166.19334c0.94962,-0.87632 2.30716,-0.94984 3.03216,-0.1642c0.725,0.78564 0.54291,2.13292 -0.4067,3.00925c-0.94962,0.87632 -2.30715,0.94984 -3.03216,0.1642c-0.725,-0.78564 -0.54292,-2.13292 0.4067,-3.00924z" fill="#000000" stroke-linecap="butt"/><path d="M269.10189,167.71047l-2.48485,-0.18688" fill="none" stroke-linecap="round"/></g></g></g></g></svg>