<svg version="1.1" xmlns="http://www.w3.org/2000/svg" xmlns:xlink="http://www.w3.org/1999/xlink" width="79.23077" height="81.06467" viewBox="0,0,79.23077,81.06467"><g transform="translate(-200.38463,-139.05169)"><g data-paper-data="{&quot;isPaintingLayer&quot;:true}" fill-rule="nonzero" stroke-linejoin="miter" stroke-miterlimit="10" stroke-dasharray="" stroke-dashoffset="0" style="mix-blend-mode: normal"><path d="M234.14924,176.47798v-6.73159h12.39225v6.73159z" fill="#000000" stroke="#ffffff" stroke-width="2" stroke-linecap="butt"/><path d="M221.451,210.14001c0,0 2.39125,-4.88492 4.4796,-8.70721c0.47566,-0.8706 -0.64087,-2.5074 -0.64087,-2.5074c0,0 2.49934,-0.70396 2.71666,-1.0252c7.12938,-5.71146 7.84075,-12.97079 7.42674,-17.46355c-0.23349,-2.53377 -16.65348,-4.71314 -0.97792,-4.18762c2.31869,0.07773 5.48492,0.11284 12.23925,-0.04347c16.42351,-0.38008 -1.28995,1.65383 -1.441,4.09375c-0.30916,4.99374 0.30721,13.28031 6.93268,17.42017c0.66229,0.41383 2.56833,1.41991 2.56833,1.41991c0,0 -1.16556,1.51903 -0.83116,2.05768c2.41533,3.89059 4.70442,8.94294 4.70442,8.94294c0,0 -1.87694,2.42616 -4.37751,3.05324c-6.44258,1.61561 -21.36441,2.5547 -28.07654,0.02713c-1.88067,-0.7082 -4.72268,-3.08037 -4.72268,-3.08037z" fill="#000000" stroke="#ffffff" stroke-width="2" stroke-linecap="butt"/><path d="M222.23454,219.11637v-5.66173h35.53098v5.66173z" fill="#000000" stroke="#ffffff" stroke-width="2" stroke-linecap="butt"/><path d="M249.15418,161.10295c0,4.60494 -4.08084,8.33799 -9.11482,8.33799c-5.03397,0 -9.11482,-3.73305 -9.11482,-8.33799c0,-4.60494 8.96183,-13.0807 8.96183,-13.0807c0,0 9.26781,8.47575 9.26781,13.0807z" fill="#000000" stroke="#ffffff" stroke-width="2" stroke-linecap="butt"/><path d="M230.97579,169.89992v-2.90682h17.8999v2.90682z" fill="#000000" stroke="#ffffff" stroke-width="2" stroke-linecap="butt"/><path d="M200.38464,219.61539v-79.23077h79.23077v79.23077z" fill="none" stroke="none" stroke-width="0" stroke-linecap="butt"/><g stroke="#ffffff" stroke-width="1.5"><path d="M233.7311,153.95109c0,0 -0.99044,-3.4492 -1.95027,-4.83648c-0.46251,-0.66848 -0.84871,-2.37032 -1.72131,-2.99249c-0.44909,-0.3202 -0.83011,0.4766 -1.31097,1.18447c-0.71285,1.04936 -1.6628,2.66788 -1.6628,2.66788c0,0 0.026,-2.19019 0.44425,-3.84924c0.46202,-1.83266 0.84274,-6.03102 1.61845,-6.11433c0.76145,-0.08177 2.1158,-0.65444 3.75442,-0.06868c1.917,0.68528 7.41825,6.47433 7.41825,6.47433l-0.82727,4.86803c0,0 -1.58201,-0.08575 -2.42752,0.30548c-1.03632,0.47952 -3.33524,2.36103 -3.33524,2.36103z" fill="#35008b" stroke-linecap="butt"/><g><path d="M227.37298,153.48675c-1.0199,0 -1.8467,-0.99937 -1.8467,-2.23215c0,-1.23279 0.8268,-2.23215 1.8467,-2.23215c1.0199,0 1.8467,0.99936 1.8467,2.23215c0,1.23278 -0.8268,2.23215 -1.8467,2.23215z" fill="#000000" stroke-linecap="butt"/><path d="M226.89712,150.87204l1.73874,1.62127" fill="none" stroke-linecap="round"/></g><path d="M243.49772,151.59034c-0.84551,-0.39123 -2.42752,-0.30548 -2.42752,-0.30548l-0.82728,-4.86803c0,0 5.50126,-5.78905 7.41825,-6.47433c1.63862,-0.58577 2.99297,-0.0131 3.75442,0.06868c0.77571,0.08331 1.15644,4.28168 1.61845,6.11434c0.41826,1.65905 0.44425,3.84924 0.44425,3.84924c0,0 -0.94995,-1.61851 -1.6628,-2.66787c-0.48086,-0.70787 -0.86188,-1.50467 -1.31096,-1.18447c-0.8726,0.62217 -1.2588,2.324 -1.72131,2.99249c-0.95983,1.38728 -1.95027,4.83648 -1.95027,4.83648c0,0 -2.29892,-1.88152 -3.33524,-2.36104z" data-paper-data="{&quot;index&quot;:null}" fill="#640000" stroke-linecap="butt"/><g data-paper-data="{&quot;index&quot;:null}"><path d="M253.40533,152.97368c-1.01991,0 -1.84671,-0.99937 -1.84671,-2.23215c0,-1.23279 0.8268,-2.23214 1.84671,-2.23214c1.0199,0 1.8467,0.99936 1.8467,2.23214c0,1.23278 -0.82679,2.23215 -1.8467,2.23215z" fill="#000000" stroke-linecap="butt"/><path d="M254.43014,152.26801l-1.34131,-2.10164" fill="none" stroke-linecap="round"/></g><path d="M232.80347,156.363c0,0 -0.38673,-4.89659 -1.27722,-7.08237c-0.4291,-1.05326 -0.48577,-3.42975 -1.46389,-4.58041c-0.50339,-0.59219 -1.2123,0.30399 -2.02844,1.04527c-1.20988,1.0989 -2.88023,2.85144 -2.88023,2.85144c0,0 0.6117,-2.85688 1.59677,-4.86738c1.08814,-2.22088 2.97862,-4.06053 4.01598,-3.87066c1.01829,0.18637 3.20971,3.93522 5.20013,5.33341c2.32857,1.63573 4.40821,0.9397 4.40821,0.9397l0.39826,9.17139c0,0 -2.09438,0.0905 -3.30432,0.27679c-2.12946,-0.12425 -4.66526,0.78282 -4.66526,0.78282z" fill="#640000" stroke-linecap="butt"/><path d="M242.44887,155.45247c-1.20995,-0.1863 -1.60219,-0.09133 -1.60219,-0.09133l-0.6574,-9.28634c0,0 2.07964,0.69602 4.40821,-0.9397c1.99042,-1.39819 4.18184,-5.14703 5.20013,-5.33341c1.03736,-0.18986 2.92784,1.64978 4.01598,3.87066c0.98506,2.0105 1.59677,4.86739 1.59677,4.86739c0,0 -1.67036,-1.75255 -2.88024,-2.85145c-0.81614,-0.74129 -1.52505,-1.63745 -2.02844,-1.04527c-0.97812,1.15066 -1.03479,3.52715 -1.46389,4.58041c-0.89049,2.18579 -1.27722,7.08237 -1.27722,7.08237c0,0 -3.41315,-1.01284 -5.31172,-0.85333z" data-paper-data="{&quot;index&quot;:null}" fill="#35008b" stroke-linecap="butt"/><g><path d="M222.34139,148.35505c0,-1.23278 0.8268,-2.23215 1.8467,-2.23215c1.0199,0 1.8467,0.99937 1.8467,2.23215c0,1.23278 -0.8268,2.23215 -1.8467,2.23215c-1.0199,0 -1.8467,-0.99937 -1.8467,-2.23215z" fill="#000000" stroke-linecap="butt"/><path d="M224.50462,147.77987l-1.34131,2.10165" fill="none" stroke-linecap="round"/></g><g data-paper-data="{&quot;index&quot;:null}"><path d="M254.17897,149.17994c0,-1.23279 0.8268,-2.23215 1.84671,-2.23215c1.0199,0 1.8467,0.99936 1.8467,2.23215c0,1.23279 -0.82679,2.23214 -1.8467,2.23214c-1.01991,0 -1.84671,-0.99936 -1.84671,-2.23214z" fill="#000000" stroke-linecap="butt"/><path d="M256.50154,148.79736l-1.73874,1.62127" fill="none" stroke-linecap="round"/></g></g></g></g></svg>