<svg version="1.1" xmlns="http://www.w3.org/2000/svg" xmlns:xlink="http://www.w3.org/1999/xlink" width="79.23077" height="79.88779" viewBox="0,0,79.23077,79.88779"><g transform="translate(-200.38463,-140.38461)"><g data-paper-data="{&quot;isPaintingLayer&quot;:true}" fill-rule="nonzero" stroke-linejoin="miter" stroke-miterlimit="10" stroke-dasharray="" stroke-dashoffset="0" style="mix-blend-mode: normal"><g stroke="#ffffff" stroke-width="1.5"><path d="M233.01918,157.59356c0,0 -1.08443,-3.77653 -2.13535,-5.29546c-0.5064,-0.73192 -0.92925,-2.59526 -1.88466,-3.27648c-0.4917,-0.35059 -0.90888,0.52183 -1.43537,1.29687c-0.7805,1.14895 -1.8206,2.92106 -1.8206,2.92106c0,0 0.02847,-2.39803 0.48641,-4.21453c0.50586,-2.00658 0.92273,-6.60337 1.77205,-6.69458c0.83371,-0.08954 2.31659,-0.71655 4.11071,-0.07519c2.09892,0.75031 8.12224,7.08874 8.12224,7.08874l-0.90578,5.33001c0,0 -1.73214,-0.09389 -2.65789,0.33446c-1.13466,0.52503 -3.65175,2.58509 -3.65175,2.58509z" fill="#35008b" stroke-linecap="butt"/><g><path d="M226.05768,157.08516c-1.11669,0 -2.02195,-1.0942 -2.02195,-2.44398c0,-1.34978 0.90526,-2.44398 2.02195,-2.44398c1.11669,0 2.02196,1.0942 2.02196,2.44398c0,1.34977 -0.90526,2.44398 -2.02196,2.44398z" fill="#000000" stroke-linecap="butt"/><path d="M225.53666,154.22231l1.90375,1.77513" fill="none" stroke-linecap="round"/></g><path d="M243.71265,155.00878c-0.92575,-0.42836 -2.65789,-0.33446 -2.65789,-0.33446l-0.90579,-5.33001c0,0 6.02332,-6.33843 8.12224,-7.08874c1.79412,-0.64135 3.27701,-0.01434 4.11071,0.07519c0.84932,0.09122 1.26619,4.68801 1.77205,6.69458c0.45795,1.81649 0.48641,4.21453 0.48641,4.21453c0,0 -1.04011,-1.77211 -1.8206,-2.92106c-0.52649,-0.77505 -0.94367,-1.64746 -1.43537,-1.29687c-0.95541,0.68121 -1.37826,2.54455 -1.88466,3.27648c-1.05091,1.51893 -2.13535,5.29546 -2.13535,5.29546c0,0 -2.51709,-2.06007 -3.65175,-2.5851z" data-paper-data="{&quot;index&quot;:null}" fill="#640000" stroke-linecap="butt"/><g data-paper-data="{&quot;index&quot;:null}"><path d="M254.56049,156.5234c-1.11669,0 -2.02196,-1.09421 -2.02196,-2.44398c0,-1.34978 0.90526,-2.44397 2.02196,-2.44397c1.11669,0 2.02196,1.0942 2.02196,2.44397c0,1.34977 -0.90526,2.44398 -2.02196,2.44398z" fill="#000000" stroke-linecap="butt"/><path d="M255.68255,155.75076l-1.4686,-2.30109" fill="none" stroke-linecap="round"/></g><path d="M232.00351,160.23436c0,0 -0.42343,-5.36128 -1.39843,-7.75449c-0.46982,-1.15321 -0.53186,-3.75523 -1.60281,-5.01508c-0.55116,-0.64838 -1.32734,0.33283 -2.22094,1.14446c-1.32469,1.20319 -3.15357,3.12205 -3.15357,3.12205c0,0 0.66975,-3.12801 1.7483,-5.3293c1.19141,-2.43164 3.26129,-4.44586 4.3971,-4.23798c1.11492,0.20406 3.51431,4.30867 5.69362,5.83955c2.54955,1.79096 4.82655,1.02887 4.82655,1.02887l0.43606,10.04176c0,0 -2.29313,0.09909 -3.6179,0.30307c-2.33154,-0.13604 -5.10799,0.85711 -5.10799,0.85711z" fill="#640000" stroke-linecap="butt"/><path d="M242.56427,159.23742c-1.32477,-0.20398 -1.75424,-0.1 -1.75424,-0.1l-0.71978,-10.16761c0,0 2.277,0.76208 4.82655,-1.02887c2.17931,-1.53088 4.5787,-5.63548 5.69362,-5.83955c1.13581,-0.20788 3.20569,1.80635 4.3971,4.23799c1.07855,2.20129 1.7483,5.3293 1.7483,5.3293c0,0 -1.82888,-1.91886 -3.15357,-3.12204c-0.89359,-0.81164 -1.66978,-1.79285 -2.22094,-1.14446c-1.07094,1.25986 -1.13298,3.86187 -1.60281,5.01508c-0.975,2.39321 -1.39843,7.75449 -1.39843,7.75449c0,0 -3.73706,-1.10896 -5.81581,-0.93431z" data-paper-data="{&quot;index&quot;:null}" fill="#35008b" stroke-linecap="butt"/><g><path d="M220.54859,151.46647c0,-1.34977 0.90526,-2.44398 2.02196,-2.44398c1.11669,0 2.02196,1.0942 2.02196,2.44398c0,1.34977 -0.90526,2.44398 -2.02196,2.44398c-1.11669,0 -2.02196,-1.0942 -2.02196,-2.44398z" fill="#000000" stroke-linecap="butt"/><path d="M222.91711,150.8367l-1.4686,2.30109" fill="none" stroke-linecap="round"/></g><g data-paper-data="{&quot;index&quot;:null}"><path d="M255.40754,152.36963c0,-1.34978 0.90526,-2.44398 2.02196,-2.44398c1.11669,0 2.02196,1.0942 2.02196,2.44398c0,1.34978 -0.90526,2.44397 -2.02196,2.44397c-1.11669,0 -2.02196,-1.0942 -2.02196,-2.44397z" fill="#000000" stroke-linecap="butt"/><path d="M257.95053,151.95075l-1.90375,1.77513" fill="none" stroke-linecap="round"/></g></g><path d="M229.18438,207.59029c0,-1.034 0.53904,-1.93736 1.50546,-5.0156c0.12031,-0.38322 -1.60217,-2.22403 -1.4752,-2.63155c0.09322,-0.29918 2.49176,-2.04972 2.5877,-2.36123c1.65901,-5.38637 3.39696,-11.04217 3.87806,-18.34446c0.47772,-7.25106 -9.26238,-18.41936 -7.48894,-22.5435c0.34463,-0.80143 5.2619,4.2608 5.2619,4.2608l2.70517,-2.82542l3.82801,2.80354l3.69485,-2.942l2.51498,2.87189c0,0 4.6616,-4.80789 4.86549,-4.28746c1.61485,4.12193 -6.75427,15.40209 -6.35613,22.77357c0.3567,6.60422 1.62402,12.244 3.11207,17.45611c0.14125,0.49473 2.81653,2.13098 2.95395,2.59961c0.12482,0.42565 -1.8306,1.84616 -1.71086,2.24841c1.03484,3.47643 1.7548,4.84231 1.7548,5.93728c0,5.24436 -4.84234,9.49576 -10.81566,9.49576c-5.97332,0 -10.81566,-4.2514 -10.81566,-9.49576z" fill="#000000" stroke="#ffffff" stroke-width="2" stroke-linecap="butt"/><path d="M228.1852,219.2724v-5.37779h23.62969v5.37779z" fill="#000000" stroke="#ffffff" stroke-width="2" stroke-linecap="butt"/><path d="M200.38464,219.61538v-79.23077h79.23077v79.23077z" fill="none" stroke="none" stroke-width="0" stroke-linecap="butt"/><path d="M252.10187,172.32358c0,1.89536 -5.41818,3.43186 -12.10184,3.43186c-6.68366,0 -12.10184,-1.5365 -12.10184,-3.43186c0,-1.89536 5.41818,-3.43187 12.10184,-3.43187c6.68366,0 12.10184,1.5365 12.10184,3.43187z" fill="#000000" stroke="#ffffff" stroke-width="2" stroke-linecap="butt"/></g></g></svg>