<svg version="1.1" xmlns="http://www.w3.org/2000/svg" xmlns:xlink="http://www.w3.org/1999/xlink" width="79.23077" height="79.23077" viewBox="0,0,79.23077,79.23077"><g transform="translate(-200.38463,-140.38461)"><g data-paper-data="{&quot;isPaintingLayer&quot;:true}" fill-rule="nonzero" stroke-linejoin="miter" stroke-miterlimit="10" stroke-dasharray="" stroke-dashoffset="0" style="mix-blend-mode: normal"><g stroke-width="1.5"><path d="M229.42252,163.91318c0,0 -1.5116,-5.26413 -2.97648,-7.38138c-0.70588,-1.02023 -1.29529,-3.61755 -2.62705,-4.5671c-0.68539,-0.48868 -1.2669,0.72738 -2.00078,1.80772c-1.08794,1.60152 -2.53775,4.07168 -2.53775,4.07168c0,0 0.03968,-3.34264 0.67802,-5.87467c0.70513,-2.79698 1.28619,-9.20448 2.47007,-9.33163c1.16211,-0.12481 3.22911,-0.9988 5.72995,-0.10481c2.92571,1.04587 11.32165,9.88105 11.32165,9.88105l-1.26258,7.42954c0,0 -2.41445,-0.13087 -3.70486,0.46621c-1.58161,0.73184 -5.09021,3.60338 -5.09021,3.60338z" fill="#3100ff" stroke="#000000" stroke-linecap="butt"/><path d="M244.32823,160.31024c-1.29041,-0.59709 -3.70486,-0.46621 -3.70486,-0.46621l-1.26258,-7.42954c0,0 8.39595,-8.83519 11.32166,-9.88105c2.50084,-0.89399 4.56784,-0.02 5.72996,0.10481c1.18388,0.12715 1.76495,6.53465 2.47007,9.33163c0.63834,2.53203 0.67802,5.87467 0.67802,5.87467c0,0 -1.44981,-2.47016 -2.53775,-4.07168c-0.73388,-1.08034 -1.31539,-2.29641 -2.00078,-1.80772c-1.33175,0.94955 -1.92117,3.54687 -2.62704,4.5671c-1.46487,2.11725 -2.97648,7.38138 -2.97648,7.38138c0,0 -3.50859,-2.87155 -5.0902,-3.60339z" data-paper-data="{&quot;index&quot;:null}" fill="#ff0000" stroke="#000000" stroke-linecap="butt"/><g data-paper-data="{&quot;index&quot;:null}"><path d="M259.44912,162.42147c-1.55657,0 -2.81843,-1.52523 -2.81843,-3.40668c0,-1.88146 1.26185,-3.40667 2.81843,-3.40667c1.55657,0 2.81842,1.52521 2.81842,3.40667c0,1.88146 -1.26184,3.40668 -2.81842,3.40668z" fill="#000000" stroke="none" stroke-linecap="butt"/><path d="M258.96607,158.13698l2.0471,3.20751" fill="none" stroke="#ffffff" stroke-linecap="round"/></g><path d="M228.00677,167.59421c0,0 -0.59022,-7.47313 -1.94928,-10.80904c-0.65488,-1.60747 -0.74137,-5.23444 -2.23416,-6.99056c-0.76827,-0.90379 -1.85019,0.46393 -3.09578,1.59528c-1.8465,1.67713 -4.39578,4.35185 -4.39578,4.35185c0,0 0.93357,-4.36015 2.43697,-7.42856c1.66071,-3.38948 4.54594,-6.19713 6.12915,-5.90735c1.5541,0.28444 4.89862,6.00589 7.93638,8.13979c3.55384,2.49643 6.72777,1.43415 6.72777,1.43415l0.60782,13.99728c0,0 -3.19642,0.13812 -5.04302,0.42245c-3.24996,-0.18963 -7.12007,1.19473 -7.12007,1.19473z" fill="#ff0000" stroke="#000000" stroke-linecap="butt"/><path d="M242.72749,166.20458c-1.8466,-0.28432 -2.44525,-0.13939 -2.44525,-0.13939l-1.00331,-14.17271c0,0 3.17393,1.06227 6.72777,-1.43415c3.03776,-2.1339 6.38228,-7.85534 7.93639,-8.13979c1.58321,-0.28977 4.46844,2.51788 6.12915,5.90736c1.5034,3.0684 2.43697,7.42855 2.43697,7.42855c0,0 -2.54929,-2.67472 -4.39578,-4.35184c-1.24559,-1.13134 -2.32752,-2.49907 -3.09578,-1.59528c-1.4928,1.75612 -1.57928,5.38309 -2.23416,6.99056c-1.35906,3.33592 -1.94928,10.80905 -1.94928,10.80905c0,0 -5.20911,-1.54579 -8.1067,-1.30235z" data-paper-data="{&quot;index&quot;:null}" fill="#3100ff" stroke="#000000" stroke-linecap="butt"/><g data-paper-data="{&quot;index&quot;:null}"><path d="M260.62983,156.63151c0,-1.88146 1.26185,-3.40668 2.81842,-3.40668c1.55657,0 2.81842,1.52522 2.81842,3.40668c0,1.88146 -1.26184,3.40667 -2.81842,3.40667c-1.55657,0 -2.81842,-1.52521 -2.81842,-3.40667z" fill="#000000" stroke="none" stroke-linecap="butt"/><path d="M261.52087,158.52199l2.65365,-2.47437" fill="none" stroke="#ffffff" stroke-linecap="round"/></g><g data-paper-data="{&quot;index&quot;:null}"><path d="M219.61704,162.75708c-1.97819,0 -3.58183,-1.60363 -3.58183,-3.58183c0,-1.97818 1.60363,-3.58183 3.58183,-3.58183c1.97819,0 3.58183,1.60364 3.58183,3.58183c0,1.97819 -1.60364,3.58183 -3.58183,3.58183z" fill="#ffe800" stroke="none" stroke-linecap="butt"/><path d="M222.0665,161.16293l-3.37242,-2.60159" fill="none" stroke="#000000" stroke-linecap="round"/></g><g data-paper-data="{&quot;index&quot;:null}"><path d="M212.83888,157.30487c-0.14754,-1.97267 1.33202,-3.69145 3.3047,-3.839c1.97267,-0.14755 3.69146,1.33202 3.839,3.3047c0.14754,1.97268 -1.33202,3.69146 -3.3047,3.839c-1.97267,0.14754 -3.69146,-1.33203 -3.839,-3.3047z" fill="#ffe800" stroke="none" stroke-linecap="butt"/><path d="M216.95411,156.07153l-2.34281,3.55707" fill="none" stroke="#000000" stroke-linecap="round"/></g><g data-paper-data="{&quot;index&quot;:null}"><path d="M260.19209,163.20516c-1.97267,0.14754 -3.69146,-1.33202 -3.839,-3.3047c-0.14754,-1.97267 1.33202,-3.69145 3.3047,-3.839c1.97267,-0.14755 3.69146,1.33202 3.839,3.3047c0.14754,1.97268 -1.33203,3.69146 -3.3047,3.839z" fill="#ffe800" stroke="none" stroke-linecap="butt"/><path d="M262.51582,161.43274l-3.55707,-2.34281" fill="none" stroke="#000000" stroke-linecap="round"/></g><g data-paper-data="{&quot;index&quot;:null}"><path d="M260.01744,156.69414c-0.14754,-1.97267 1.33202,-3.69145 3.3047,-3.839c1.97267,-0.14755 3.69146,1.33202 3.839,3.3047c0.14754,1.97268 -1.33203,3.69146 -3.3047,3.839c-1.97267,0.14754 -3.69146,-1.33203 -3.839,-3.3047z" fill="#ffe800" stroke="none" stroke-linecap="butt"/><path d="M261.78985,159.01787l2.34281,-3.55707" fill="none" stroke="#000000" stroke-linecap="round"/></g></g><path d="M228.37973,207.59821v-34.68903h22.4001v34.68903z" fill="#ffffff" stroke="#000000" stroke-width="2" stroke-linecap="butt"/><path d="M221.69081,217.86492v-13.8445h35.77793v13.8445z" fill="#ffffff" stroke="#000000" stroke-width="2" stroke-linecap="butt"/><path d="M220.21303,172.90917v-18.04452l7.63697,0.0671l0.08249,7.3996h7.00003v-7.4667h8.24448l0.15556,7.4667h7.15559v-7.4667h8.45839v18.04452z" fill="#ffffff" stroke="#000000" stroke-width="2" stroke-linecap="butt"/><path d="M224.33527,204.02041l1.71112,-6.84448h27.06679l1.55556,6.84448z" fill="#ffffff" stroke="#000000" stroke-width="2" stroke-linecap="butt"/><path d="M254.66871,172.90917l-1.55555,6.84448h-27.06679l-1.71111,-6.84448z" data-paper-data="{&quot;index&quot;:null}" fill="#ffffff" stroke="#000000" stroke-width="2" stroke-linecap="butt"/><path d="M200.38463,219.61538v-79.23077h79.23077v79.23077z" fill="none" stroke="none" stroke-width="0" stroke-linecap="butt"/></g></g></svg>