<svg version="1.1" xmlns="http://www.w3.org/2000/svg" xmlns:xlink="http://www.w3.org/1999/xlink" width="79.23077" height="80.81233" viewBox="0,0,79.23077,80.81233"><g transform="translate(-200.38462,-139.30402)"><g data-paper-data="{&quot;isPaintingLayer&quot;:true}" fill-rule="nonzero" stroke-linejoin="miter" stroke-miterlimit="10" stroke-dasharray="" stroke-dashoffset="0" style="mix-blend-mode: normal"><path d="M234.14922,176.47797v-6.73159h12.39225v6.73159z" fill="#ffffff" stroke="#000000" stroke-width="2" stroke-linecap="butt"/><path d="M221.45099,210.14c0,0 2.39125,-4.88492 4.4796,-8.70721c0.47566,-0.8706 -0.64087,-2.5074 -0.64087,-2.5074c0,0 2.49934,-0.70396 2.71666,-1.0252c7.12938,-5.71146 7.84075,-12.97079 7.42674,-17.46355c-0.23349,-2.53377 -16.65348,-4.71314 -0.97792,-4.18762c2.31869,0.07773 5.48492,0.11284 12.23925,-0.04347c16.42351,-0.38008 -1.28995,1.65383 -1.441,4.09375c-0.30916,4.99374 0.30721,13.28031 6.93268,17.42017c0.66229,0.41383 2.56833,1.41991 2.56833,1.41991c0,0 -1.16556,1.51903 -0.83116,2.05768c2.41533,3.89059 4.70442,8.94294 4.70442,8.94294c0,0 -1.87694,2.42616 -4.37751,3.05324c-6.44258,1.61561 -21.36441,2.5547 -28.07654,0.02713c-1.88067,-0.7082 -4.72268,-3.08037 -4.72268,-3.08037z" fill="#ffffff" stroke="#000000" stroke-width="2" stroke-linecap="butt"/><path d="M222.23452,219.11636v-5.66173h35.53098v5.66173z" fill="#ffffff" stroke="#000000" stroke-width="2" stroke-linecap="butt"/><path d="M249.15417,161.10294c0,4.60494 -4.08084,8.33799 -9.11482,8.33799c-5.03397,0 -9.11482,-3.73305 -9.11482,-8.33799c0,-4.60494 8.96183,-13.0807 8.96183,-13.0807c0,0 9.26781,8.47575 9.26781,13.0807z" fill="#ffffff" stroke="#000000" stroke-width="2" stroke-linecap="butt"/><path d="M230.97577,169.89991v-2.90682h17.8999v2.90682z" fill="#ffffff" stroke="#000000" stroke-width="2" stroke-linecap="butt"/><path d="M200.38463,219.61538v-79.23077h79.23077v79.23077z" fill="none" stroke="none" stroke-width="0" stroke-linecap="butt"/><g stroke-width="1.5"><path d="M234.12446,153.7691c0,0 -0.96004,-3.34333 -1.8904,-4.68803c-0.44831,-0.64796 -0.82266,-2.29756 -1.66848,-2.90064c-0.4353,-0.31037 -0.80462,0.46197 -1.27073,1.14811c-0.69097,1.01715 -1.61176,2.58599 -1.61176,2.58599c0,0 0.0252,-2.12296 0.43062,-3.73109c0.44784,-1.77641 0.81688,-5.84591 1.56878,-5.92666c0.73808,-0.07927 2.05086,-0.63435 3.63918,-0.06657c1.85816,0.66425 7.19055,6.2756 7.19055,6.2756l-0.80188,4.71861c0,0 -1.53345,-0.08312 -2.35301,0.2961c-1.00451,0.4648 -3.23287,2.28856 -3.23287,2.28856z" fill="#3100ff" stroke="#000000" stroke-linecap="butt"/><path d="M243.5913,151.48082c-0.81956,-0.37922 -2.35301,-0.2961 -2.35301,-0.2961l-0.80189,-4.71861c0,0 5.33239,-5.61136 7.19055,-6.2756c1.58832,-0.56778 2.90111,-0.0127 3.63918,0.06657c0.7519,0.08075 1.12094,4.15025 1.56878,5.92666c0.40542,1.60813 0.43062,3.73109 0.43062,3.73109c0,0 -0.9208,-1.56883 -1.61176,-2.58599c-0.4661,-0.68614 -0.83543,-1.45848 -1.27073,-1.14811c-0.84582,0.60307 -1.22016,2.25267 -1.66847,2.90064c-0.93036,1.3447 -1.8904,4.68803 -1.8904,4.68803c0,0 -2.22836,-1.82376 -3.23286,-2.28856z" data-paper-data="{&quot;index&quot;:null}" fill="#ff0000" stroke="#000000" stroke-linecap="butt"/><g data-paper-data="{&quot;index&quot;:null}"><path d="M253.1948,152.8217c-0.9886,0 -1.79002,-0.96869 -1.79002,-2.16363c0,-1.19494 0.80142,-2.16363 1.79002,-2.16363c0.9886,0 1.79002,0.96869 1.79002,2.16363c0,1.19494 -0.80142,2.16363 -1.79002,2.16363z" fill="#000000" stroke="none" stroke-linecap="butt"/><path d="M252.88801,150.10055l1.30014,2.03714" fill="none" stroke="#ffffff" stroke-linecap="round"/></g><path d="M233.2253,156.10698c0,0 -0.37486,-4.74629 -1.23802,-6.86498c-0.41592,-1.02093 -0.47085,-3.32447 -1.41895,-4.43981c-0.48794,-0.57401 -1.17509,0.29465 -1.96618,1.01318c-1.17274,1.06517 -2.79183,2.76392 -2.79183,2.76392c0,0 0.59293,-2.7692 1.54776,-4.71799c1.05474,-2.15271 2.88719,-3.93589 3.89271,-3.75185c0.98703,0.18065 3.11119,3.81443 5.04051,5.1697c2.25709,1.58552 4.2729,0.91085 4.2729,0.91085l0.38604,8.88988c0,0 -2.03009,0.08772 -3.2029,0.2683c-2.0641,-0.12044 -4.52206,0.75879 -4.52206,0.75879z" fill="#ff0000" stroke="#000000" stroke-linecap="butt"/><path d="M242.57465,155.2244c-1.1728,-0.18058 -1.55301,-0.08853 -1.55301,-0.08853l-0.63722,-9.0013c0,0 2.01581,0.67466 4.2729,-0.91085c1.92932,-1.35527 4.05348,-4.98904 5.04052,-5.1697c1.00552,-0.18404 2.83797,1.59914 3.89271,3.75185c0.95483,1.94879 1.54775,4.71798 1.54775,4.71798c0,0 -1.61909,-1.69875 -2.79183,-2.76392c-0.79109,-0.71853 -1.47824,-1.5872 -1.96618,-1.01318c-0.9481,1.11534 -1.00302,3.41888 -1.41895,4.43981c-0.86316,2.11869 -1.23802,6.86499 -1.23802,6.86499c0,0 -3.30838,-0.98175 -5.14869,-0.82714z" data-paper-data="{&quot;index&quot;:null}" fill="#3100ff" stroke="#000000" stroke-linecap="butt"/><g data-paper-data="{&quot;index&quot;:null}"><path d="M253.94469,149.1444c0,-1.19494 0.80142,-2.16363 1.79002,-2.16363c0.9886,0 1.79002,0.96869 1.79002,2.16363c0,1.19494 -0.80142,2.16363 -1.79002,2.16363c-0.9886,0 -1.79002,-0.96869 -1.79002,-2.16363z" fill="#000000" stroke="none" stroke-linecap="butt"/><path d="M254.51061,150.34508l1.68537,-1.57151" fill="none" stroke="#ffffff" stroke-linecap="round"/></g><g data-paper-data="{&quot;index&quot;:null}"><path d="M227.89686,153.03485c-1.25638,0 -2.27487,-1.01849 -2.27487,-2.27487c0,-1.25637 1.01849,-2.27487 2.27487,-2.27487c1.25638,0 2.27487,1.0185 2.27487,2.27487c0,1.25638 -1.01849,2.27487 -2.27487,2.27487z" fill="#ffe800" stroke="none" stroke-linecap="butt"/><path d="M229.45255,152.02238l-2.14187,-1.65231" fill="none" stroke="#000000" stroke-linecap="round"/></g><g data-paper-data="{&quot;index&quot;:null}"><path d="M223.59195,149.57207c-0.0937,-1.25287 0.84598,-2.3445 2.09887,-2.4382c1.25287,-0.09371 2.3445,0.84598 2.4382,2.09887c0.0937,1.25288 -0.84599,2.3445 -2.09887,2.4382c-1.25287,0.0937 -2.3445,-0.84599 -2.4382,-2.09887z" fill="#ffe800" stroke="none" stroke-linecap="butt"/><path d="M226.20559,148.78876l-1.48795,2.25915" fill="none" stroke="#000000" stroke-linecap="round"/></g><g data-paper-data="{&quot;index&quot;:null}"><path d="M253.66667,153.31943c-1.25287,0.0937 -2.3445,-0.84598 -2.4382,-2.09887c-0.0937,-1.25287 0.84598,-2.3445 2.09887,-2.4382c1.25287,-0.09371 2.3445,0.84599 2.4382,2.09887c0.0937,1.25288 -0.84599,2.3445 -2.09887,2.4382z" fill="#ffe800" stroke="none" stroke-linecap="butt"/><path d="M255.14251,152.19374l-2.25915,-1.48795" fill="none" stroke="#000000" stroke-linecap="round"/></g><g data-paper-data="{&quot;index&quot;:null}"><path d="M253.55575,149.18419c-0.0937,-1.25287 0.84598,-2.3445 2.09887,-2.4382c1.25287,-0.09371 2.3445,0.84598 2.4382,2.09887c0.0937,1.25288 -0.84599,2.3445 -2.09887,2.4382c-1.25287,0.0937 -2.3445,-0.84599 -2.4382,-2.09887z" fill="#ffe800" stroke="none" stroke-linecap="butt"/><path d="M256.16939,148.40088l-1.48795,2.25915" fill="none" stroke="#000000" stroke-linecap="round"/></g></g></g></g></svg>