<svg version="1.1" xmlns="http://www.w3.org/2000/svg" xmlns:xlink="http://www.w3.org/1999/xlink" width="79.23077" height="79.47041" viewBox="0,0,79.23077,79.47041"><g transform="translate(-200.38462,-140.38461)"><g data-paper-data="{&quot;isPaintingLayer&quot;:true}" fill-rule="nonzero" stroke-linejoin="miter" stroke-miterlimit="10" stroke-dasharray="" stroke-dashoffset="0" style="mix-blend-mode: normal"><path d="M225.794,204.81664c0,0 3.61299,-12.84073 6.54301,-18.2665c2.4959,-4.62188 9.94447,-12.26484 9.94447,-12.26484c0,0 -5.93148,-2.08283 -10.51307,-1.46194c-4.59372,0.62253 -7.55422,4.52 -10.17831,2.70008c-4.88866,-3.39052 -3.59194,-6.56234 0.68477,-11.24114c2.00875,-2.19761 5.97885,-3.11141 7.1033,-6.26508c1.07968,-3.02811 5.00688,-4.64805 6.35428,-5.2161c0.35421,-0.14933 0.70632,-2.28474 0.70632,-2.28474c0,0 3.40232,-0.6295 3.99652,-1.71397c0.87619,-1.59914 0.69551,-3.96444 0.69551,-3.96444c0,0 1.68838,1.36917 4.35849,4.30388c4.31988,3.18487 10.27804,6.45459 12.72139,10.56048c5.01301,8.42405 3.26603,18.43981 3.0156,21.6059c-2.7102,7.35609 -7.76462,23.50842 -7.76462,23.50842z" fill="#ffffff" stroke="#000000" stroke-width="2" stroke-linecap="butt"/><path d="M217.93449,218.85503v-16.92073h44.1311v16.92073z" fill="#ffffff" stroke="#000000" stroke-width="2" stroke-linecap="butt"/><path d="M200.38463,219.61538v-79.23077h79.23077v79.23077z" fill="none" stroke="none" stroke-width="0" stroke-linecap="butt"/><g stroke-width="1.5"><path d="M248.67058,154.60734c0,0 1.76551,-3.18323 2.07315,-4.86649c0.14824,-0.81111 1.0928,-2.30816 0.91384,-3.38039c-0.0921,-0.55182 -0.93707,-0.25413 -1.78979,-0.09184c-1.26409,0.24058 -3.10661,0.71896 -3.10661,0.71896c0,0 1.59052,-1.55127 3.08101,-2.44031c1.64646,-0.98207 4.9325,-3.71822 5.54832,-3.22121c0.6045,0.48787 1.9863,1.04939 2.74046,2.64529c0.88229,1.86703 0.67085,9.96483 0.67085,9.96483l-4.08674,2.89569c0,0 -1.07245,-1.19686 -1.95929,-1.52325c-1.08698,-0.40003 -4.0852,-0.70128 -4.0852,-0.70128z" fill="#3100ff" stroke="#000000" stroke-linecap="butt"/><path d="M257.3656,159.92458c-0.32528,-0.88725 -1.52082,-1.96118 -1.52082,-1.96118l2.90075,-4.08315c0,0 8.09806,-0.2014 9.96399,0.6832c1.59496,0.75614 2.15477,2.13864 2.64189,2.74374c0.49624,0.61644 -2.24398,3.89908 -3.22809,5.54432c-0.89088,1.48939 -2.44412,3.07798 -2.44412,3.07798c0,0 0.48066,-1.84193 0.72281,-3.10572c0.16335,-0.85251 0.46209,-1.69711 -0.08962,-1.7899c-1.07201,-0.18029 -2.57023,0.76242 -3.38152,0.90965c-1.68364,0.30555 -4.86906,2.06711 -4.86906,2.06711c0,0 -0.29752,-2.99859 -0.69621,-4.08607z" data-paper-data="{&quot;index&quot;:null}" fill="#ff0000" stroke="#000000" stroke-linecap="butt"/><g data-paper-data="{&quot;index&quot;:null}"><path d="M263.47459,168.02677c-0.73107,-0.73198 -0.60649,-2.04172 0.27827,-2.92538c0.88476,-0.88366 2.19464,-1.00662 2.92571,-0.27464c0.73107,0.73198 0.60649,2.04171 -0.27827,2.92537c-0.88476,0.88366 -2.19464,1.00663 -2.92572,0.27465z" fill="#000000" stroke="none" stroke-linecap="butt"/><path d="M265.2625,165.78732l-0.54688,2.46912" fill="none" stroke="#ffffff" stroke-linecap="round"/></g><path d="M246.27464,155.67045c0,0 3.23704,-3.78744 4.16745,-5.99331c0.44834,-1.06293 2.1133,-2.80708 2.238,-4.33386c0.06418,-0.78576 -1.08714,-0.65216 -2.20417,-0.70654c-1.65591,-0.08062 -4.11102,-0.0232 -4.11102,-0.0232c0,0 2.48883,-1.60881 4.63785,-2.34297c2.37389,-0.81098 5.04928,-0.77286 5.6566,0.10774c0.59615,0.86441 -0.52355,5.12436 -0.10028,7.55509c0.49518,2.84369 2.4854,3.83731 2.4854,3.83731l-6.29676,6.85991c0,0 -1.56621,-1.43825 -2.5672,-2.17307c-1.43723,-1.61736 -3.90589,-2.78709 -3.90589,-2.78709z" fill="#ff0000" stroke="#000000" stroke-linecap="butt"/><path d="M253.84197,161.94021c-0.73359,-1.0019 -1.08291,-1.21535 -1.08291,-1.21535l6.1935,-7.12828c0,0 0.99116,1.99145 3.83423,2.49016c2.4302,0.42628 6.69154,-0.68813 7.55521,-0.09091c0.87985,0.60841 0.91465,3.28385 0.10072,5.65673c-0.73682,2.1481 -2.34872,4.63494 -2.34872,4.63494c0,0 0.06047,-2.45503 -0.0181,-4.11104c-0.053,-1.11709 0.08203,-2.26825 -0.70381,-2.20504c-1.52694,0.12281 -3.27314,1.78561 -4.33663,2.23263c-2.20702,0.92767 -5.99848,4.16002 -5.99848,4.16002c0,0 -1.71964,-3.1756 -3.19503,-4.42385z" data-paper-data="{&quot;index&quot;:null}" fill="#3100ff" stroke="#000000" stroke-linecap="butt"/><g data-paper-data="{&quot;index&quot;:null}"><path d="M266.75187,165.86264c0.88476,-0.88366 2.19465,-1.00662 2.92572,-0.27465c0.73107,0.73198 0.60649,2.04171 -0.27827,2.92537c-0.88476,0.88366 -2.19464,1.00662 -2.92571,0.27464c-0.73107,-0.73198 -0.60649,-2.04171 0.27827,-2.92537z" fill="#000000" stroke="none" stroke-linecap="butt"/><path d="M266.28136,167.16955l2.40991,0.08575" fill="none" stroke="#ffffff" stroke-linecap="round"/></g><g data-paper-data="{&quot;index&quot;:null}"><path d="M244.60892,149.45333c-0.92909,-0.93024 -0.92816,-2.43753 0.00209,-3.36663c0.93024,-0.92909 2.43753,-0.92816 3.36663,0.00209c0.92909,0.93024 0.92815,2.43754 -0.00209,3.36663c-0.93024,0.92909 -2.43753,0.92816 -3.36663,-0.00209z" fill="#ffe800" stroke="none" stroke-linecap="butt"/><path d="M246.509,149.85647l-0.36052,-2.80777" fill="none" stroke="#000000" stroke-linecap="round"/></g><g data-paper-data="{&quot;index&quot;:null}"><path d="M243.98934,143.70517c0.85836,-0.99588 2.36151,-1.10737 3.3574,-0.24901c0.99589,0.85835 1.10738,2.36152 0.24901,3.3574c-0.85836,0.99589 -2.36152,1.10737 -3.3574,0.24901c-0.99588,-0.85836 -1.10737,-2.36152 -0.24901,-3.3574z" fill="#ffe800" stroke="none" stroke-linecap="butt"/><path d="M246.50211,145.0611l-2.77306,0.56893" fill="none" stroke="#000000" stroke-linecap="round"/></g><g data-paper-data="{&quot;index&quot;:null}"><path d="M263.45501,168.74422c-0.99588,-0.85836 -1.10738,-2.36152 -0.24901,-3.3574c0.85836,-0.99588 2.36151,-1.10737 3.3574,-0.24901c0.99589,0.85835 1.10737,2.36152 0.24901,3.3574c-0.85836,0.99589 -2.36152,1.10737 -3.3574,0.24901z" fill="#ffe800" stroke="none" stroke-linecap="butt"/><path d="M265.37987,169.00451l-0.56893,-2.77306" fill="none" stroke="#000000" stroke-linecap="round"/></g><g data-paper-data="{&quot;index&quot;:null}"><path d="M266.43479,165.60408c0.85836,-0.99588 2.36151,-1.10737 3.3574,-0.24901c0.99589,0.85835 1.10738,2.36152 0.24901,3.3574c-0.85836,0.99589 -2.36152,1.10737 -3.3574,0.24901c-0.99588,-0.85836 -1.10737,-2.36152 -0.24901,-3.3574z" fill="#ffe800" stroke="none" stroke-linecap="butt"/><path d="M268.94756,166.96001l-2.77306,0.56893" fill="none" stroke="#000000" stroke-linecap="round"/></g></g></g></g></svg>