<svg version="1.1" xmlns="http://www.w3.org/2000/svg" xmlns:xlink="http://www.w3.org/1999/xlink" width="79.23077" height="79.7279" viewBox="0,0,79.23077,79.7279"><g transform="translate(-200.38465,-140.38463)"><g data-paper-data="{&quot;isPaintingLayer&quot;:true}" fill-rule="nonzero" stroke-linejoin="miter" stroke-miterlimit="10" stroke-dasharray="" stroke-dashoffset="0" style="mix-blend-mode: normal"><g stroke-width="1.5"><path d="M232.74528,157.7869c0,0 -1.10309,-3.8415 -2.17208,-5.38656c-0.51511,-0.74451 -0.94524,-2.63991 -1.91709,-3.33284c-0.50016,-0.35662 -0.92452,0.53081 -1.46007,1.31918c-0.79392,1.16871 -1.85192,2.97131 -1.85192,2.97131c0,0 0.02896,-2.43929 0.49478,-4.28703c0.51456,-2.0411 0.9386,-6.71697 1.80253,-6.80975c0.84805,-0.09108 2.35644,-0.72887 4.18143,-0.07649c2.13503,0.76322 8.26197,7.21069 8.26197,7.21069l-0.92136,5.4217c0,0 -1.76194,-0.0955 -2.70362,0.34022c-1.15418,0.53406 -3.71458,2.62956 -3.71458,2.62956z" fill="#3100ff" stroke="#000000" stroke-linecap="butt"/><path d="M243.62271,155.15765c-0.94167,-0.43572 -2.70362,-0.34022 -2.70362,-0.34022l-0.92137,-5.4217c0,0 6.12694,-6.44747 8.26197,-7.21069c1.82498,-0.65239 3.33338,-0.01459 4.18143,0.07649c0.86394,0.09279 1.28797,4.76865 1.80253,6.80975c0.46583,1.84774 0.49478,4.28703 0.49478,4.28703c0,0 -1.058,-1.8026 -1.85192,-2.97131c-0.53555,-0.78838 -0.95991,-1.6758 -1.46007,-1.31918c-0.97185,0.69293 -1.40197,2.58832 -1.91708,3.33284c-1.06899,1.54506 -2.17208,5.38656 -2.17208,5.38656c0,0 -2.56039,-2.09551 -3.71457,-2.62957z" data-paper-data="{&quot;index&quot;:null}" fill="#ff0000" stroke="#000000" stroke-linecap="butt"/><g data-paper-data="{&quot;index&quot;:null}"><path d="M254.65716,156.69833c-1.1359,0 -2.05674,-1.11303 -2.05674,-2.48602c0,-1.373 0.92083,-2.48601 2.05674,-2.48601c1.1359,0 2.05674,1.11302 2.05674,2.48601c0,1.37299 -0.92083,2.48602 -2.05674,2.48602z" fill="#000000" stroke="none" stroke-linecap="butt"/><path d="M254.30466,153.57172l1.49387,2.34068" fill="none" stroke="#ffffff" stroke-linecap="round"/></g><path d="M231.71214,160.47313c0,0 -0.43071,-5.45351 -1.42248,-7.88789c-0.4779,-1.17305 -0.54101,-3.81983 -1.63038,-5.10136c-0.56064,-0.65954 -1.35018,0.33855 -2.25914,1.16415c-1.34748,1.22389 -3.20782,3.17576 -3.20782,3.17576c0,0 0.68127,-3.18182 1.77838,-5.42098c1.2119,-2.47347 3.31739,-4.52235 4.47274,-4.31089c1.1341,0.20757 3.57477,4.38279 5.79157,5.94c2.59341,1.82177 4.90958,1.04657 4.90958,1.04657l0.44356,10.21451c0,0 -2.33258,0.10079 -3.68014,0.30828c-2.37165,-0.13838 -5.19586,0.87185 -5.19586,0.87185z" fill="#ff0000" stroke="#000000" stroke-linecap="butt"/><path d="M242.45457,159.45904c-1.34756,-0.20748 -1.78442,-0.10172 -1.78442,-0.10172l-0.73217,-10.34252c0,0 2.31617,0.77519 4.90958,-1.04657c2.2168,-1.55721 4.65747,-5.73243 5.79157,-5.94c1.15535,-0.21146 3.26084,1.83742 4.47274,4.31089c1.0971,2.23916 1.77837,5.42098 1.77837,5.42098c0,0 -1.86034,-1.95187 -3.20782,-3.17575c-0.90897,-0.8256 -1.6985,-1.8237 -2.25914,-1.16415c-1.08937,1.28153 -1.15247,3.92831 -1.63038,5.10136c-0.99177,2.43438 -1.42248,7.8879 -1.42248,7.8879c0,0 -3.80134,-1.12804 -5.91586,-0.95039z" data-paper-data="{&quot;index&quot;:null}" fill="#3100ff" stroke="#000000" stroke-linecap="butt"/><g data-paper-data="{&quot;index&quot;:null}"><path d="M255.51879,152.4731c0,-1.373 0.92083,-2.48602 2.05674,-2.48602c1.1359,0 2.05674,1.11303 2.05674,2.48602c0,1.373 -0.92083,2.48601 -2.05674,2.48601c-1.1359,0 -2.05674,-1.11302 -2.05674,-2.48601z" fill="#000000" stroke="none" stroke-linecap="butt"/><path d="M256.16902,153.85268l1.9365,-1.80567" fill="none" stroke="#ffffff" stroke-linecap="round"/></g><g data-paper-data="{&quot;index&quot;:null}"><path d="M225.58974,156.94324c-1.44358,0 -2.61383,-1.17025 -2.61383,-2.61383c0,-1.44358 1.17025,-2.61383 2.61383,-2.61383c1.44358,0 2.61383,1.17026 2.61383,2.61383c0,1.44358 -1.17025,2.61383 -2.61383,2.61383z" fill="#ffe800" stroke="none" stroke-linecap="butt"/><path d="M227.37723,155.7799l-2.46102,-1.89851" fill="none" stroke="#000000" stroke-linecap="round"/></g><g data-paper-data="{&quot;index&quot;:null}"><path d="M220.64338,152.96449c-0.10767,-1.43956 0.97204,-2.69383 2.4116,-2.8015c1.43956,-0.10767 2.69384,0.97204 2.8015,2.4116c0.10767,1.43956 -0.97204,2.69384 -2.4116,2.8015c-1.43956,0.10767 -2.69384,-0.97205 -2.8015,-2.4116z" fill="#ffe800" stroke="none" stroke-linecap="butt"/><path d="M223.64646,152.06446l-1.70966,2.59577" fill="none" stroke="#000000" stroke-linecap="round"/></g><g data-paper-data="{&quot;index&quot;:null}"><path d="M255.19934,157.27022c-1.43956,0.10767 -2.69384,-0.97204 -2.8015,-2.4116c-0.10767,-1.43956 0.97204,-2.69383 2.4116,-2.8015c1.43956,-0.10767 2.69384,0.97204 2.8015,2.4116c0.10767,1.43956 -0.97205,2.69384 -2.4116,2.8015z" fill="#ffe800" stroke="none" stroke-linecap="butt"/><path d="M256.89508,155.9768l-2.59577,-1.70966" fill="none" stroke="#000000" stroke-linecap="round"/></g><g data-paper-data="{&quot;index&quot;:null}"><path d="M255.0719,152.51881c-0.10767,-1.43956 0.97204,-2.69383 2.4116,-2.8015c1.43956,-0.10767 2.69384,0.97204 2.8015,2.4116c0.10767,1.43956 -0.97205,2.69384 -2.4116,2.8015c-1.43956,0.10767 -2.69384,-0.97205 -2.8015,-2.4116z" fill="#ffe800" stroke="none" stroke-linecap="butt"/><path d="M258.07498,151.61879l-1.70966,2.59577" fill="none" stroke="#000000" stroke-linecap="round"/></g></g><path d="M235.10978,171.19973c0,0 -6.84098,-12.39557 -5.85256,-12.41749c5.19226,-0.11514 19.21959,0.15302 21.64448,0c1.05589,-0.06663 -5.68342,12.41749 -5.68342,12.41749z" fill="#ffffff" stroke="#000000" stroke-width="2" stroke-linecap="butt"/><path d="M232.33538,173.27021v-3.70598h15.32929v3.70598z" fill="#ffffff" stroke="#000000" stroke-width="2" stroke-linecap="butt"/><path d="M200.38466,219.6154v-79.23077h79.23077v79.23077z" fill="none" stroke="none" stroke-width="0" stroke-linecap="butt"/><path d="M225.09509,219.11252c0,0 -1.70504,-5.23873 1.01471,-8.53038c1.37174,-1.66018 5.04152,-2.47675 6.47994,-6.0612c6.00528,-14.96475 3.52416,-27.91434 3.52416,-27.91434h8.04629c0,0 -1.4659,12.59266 3.56246,27.37031c1.00456,2.95226 5.11332,5.49774 6.41594,6.70968c2.54432,2.84092 0.76641,8.42594 0.76641,8.42594z" fill="#ffffff" stroke="#000000" stroke-width="2" stroke-linecap="butt"/><path d="M223.9791,219.03014v-3.71879h32.05719v3.7188z" fill="#ffffff" stroke="#000000" stroke-width="2" stroke-linecap="butt"/><path d="M229.21899,178.85146v-5.74024h21.56208v5.74024z" fill="#ffffff" stroke="#000000" stroke-width="2" stroke-linecap="butt"/></g></g></svg>