<svg version="1.1" xmlns="http://www.w3.org/2000/svg" xmlns:xlink="http://www.w3.org/1999/xlink" width="79.23077" height="79.88779" viewBox="0,0,79.23077,79.88779"><g transform="translate(-200.38462,-140.38461)"><g data-paper-data="{&quot;isPaintingLayer&quot;:true}" fill-rule="nonzero" stroke-linejoin="miter" stroke-miterlimit="10" stroke-dasharray="" stroke-dashoffset="0" style="mix-blend-mode: normal"><g stroke-width="1.5"><path d="M232.42778,157.76846c0,0 -1.08213,-3.7685 -2.13081,-5.2842c-0.50533,-0.73036 -0.92728,-2.58974 -1.88066,-3.26951c-0.49066,-0.34984 -0.90695,0.52072 -1.43232,1.29412c-0.77884,1.1465 -1.81673,2.91485 -1.81673,2.91485c0,0 0.02841,-2.39293 0.48538,-4.20557c0.50479,-2.00231 0.92076,-6.58933 1.76828,-6.68035c0.83194,-0.08934 2.31167,-0.71502 4.10197,-0.07504c2.09446,0.74872 8.10497,7.07367 8.10497,7.07367l-0.90386,5.31868c0,0 -1.72846,-0.09369 -2.65224,0.33375c-1.13225,0.52391 -3.64399,2.57959 -3.64399,2.57959z" fill="#3100ff" stroke="#000000" stroke-linecap="butt"/><path d="M243.09851,155.18918c-0.92378,-0.42744 -2.65224,-0.33375 -2.65224,-0.33375l-0.90386,-5.31868c0,0 6.01051,-6.32496 8.10497,-7.07367c1.7903,-0.63999 3.27003,-0.01431 4.10197,0.07504c0.84752,0.09102 1.26349,4.67804 1.76828,6.68035c0.45697,1.81263 0.48538,4.20556 0.48538,4.20556c0,0 -1.0379,-1.76834 -1.81673,-2.91484c-0.52538,-0.7734 -0.94166,-1.64396 -1.43232,-1.29412c-0.95338,0.67976 -1.37534,2.53914 -1.88066,3.26951c-1.04868,1.5157 -2.1308,5.2842 -2.1308,5.2842c0,0 -2.51173,-2.05569 -3.64399,-2.5796z" data-paper-data="{&quot;index&quot;:null}" fill="#ff0000" stroke="#000000" stroke-linecap="butt"/><g data-paper-data="{&quot;index&quot;:null}"><path d="M253.92328,156.70058c-1.11432,0 -2.01766,-1.09189 -2.01766,-2.43879c0,-1.3469 0.90333,-2.43877 2.01766,-2.43877c1.11432,0 2.01766,1.09187 2.01766,2.43877c0,1.3469 -0.90333,2.43879 -2.01766,2.43879z" fill="#000000" stroke="none" stroke-linecap="butt"/><path d="M253.57747,153.63338l1.46548,2.2962" fill="none" stroke="#ffffff" stroke-linecap="round"/></g><path d="M231.41426,160.40365c0,0 -0.42252,-5.34987 -1.39545,-7.738c-0.46882,-1.15076 -0.53073,-3.74724 -1.5994,-5.00442c-0.54999,-0.64701 -1.32452,0.33212 -2.21621,1.14203c-1.32188,1.20063 -3.14686,3.11541 -3.14686,3.11541c0,0 0.66833,-3.12136 1.74458,-5.31797c1.18887,-2.42647 3.25435,-4.4364 4.38774,-4.22896c1.11255,0.20363 3.50684,4.2995 5.68152,5.82712c2.54413,1.78715 4.81629,1.02669 4.81629,1.02669l0.43513,10.02041c0,0 -2.28825,0.09887 -3.61021,0.30242c-2.32659,-0.13576 -5.09713,0.85529 -5.09713,0.85529z" fill="#ff0000" stroke="#000000" stroke-linecap="butt"/><path d="M241.95256,159.40883c-1.32195,-0.20354 -1.75051,-0.09979 -1.75051,-0.09979l-0.71825,-10.14598c0,0 2.27216,0.76046 4.81629,-1.02669c2.17468,-1.52762 4.56896,-5.6235 5.68152,-5.82713c1.13339,-0.20744 3.19888,1.8025 4.38775,4.22897c1.07626,2.19661 1.74458,5.31797 1.74458,5.31797c0,0 -1.82498,-1.91478 -3.14686,-3.11541c-0.89169,-0.80991 -1.66624,-1.78904 -2.21622,-1.14203c-1.06867,1.25718 -1.13057,3.85366 -1.59939,5.00442c-0.97293,2.38813 -1.39546,7.73801 -1.39546,7.73801c0,0 -3.72911,-1.10661 -5.80344,-0.93233z" data-paper-data="{&quot;index&quot;:null}" fill="#3100ff" stroke="#000000" stroke-linecap="butt"/><g data-paper-data="{&quot;index&quot;:null}"><path d="M254.76853,152.55564c0,-1.3469 0.90334,-2.43878 2.01766,-2.43878c1.11432,0 2.01766,1.09188 2.01766,2.43878c0,1.3469 -0.90333,2.43878 -2.01766,2.43878c-1.11432,0 -2.01766,-1.09187 -2.01766,-2.43878z" fill="#000000" stroke="none" stroke-linecap="butt"/><path d="M255.40641,153.90901l1.8997,-1.77136" fill="none" stroke="#ffffff" stroke-linecap="round"/></g><g data-paper-data="{&quot;index&quot;:null}"><path d="M225.40821,156.94083c-1.41615,0 -2.56416,-1.14801 -2.56416,-2.56416c0,-1.41615 1.14801,-2.56416 2.56416,-2.56416c1.41615,0 2.56416,1.14802 2.56416,2.56416c0,1.41615 -1.14801,2.56416 -2.56416,2.56416z" fill="#ffe800" stroke="none" stroke-linecap="butt"/><path d="M227.16173,155.79961l-2.41425,-1.86243" fill="none" stroke="#000000" stroke-linecap="round"/></g><g data-paper-data="{&quot;index&quot;:null}"><path d="M220.55585,153.03769c-0.10562,-1.4122 0.95357,-2.64264 2.36578,-2.74827c1.4122,-0.10562 2.64265,0.95357 2.74827,2.36578c0.10562,1.41221 -0.95358,2.64265 -2.36578,2.74827c-1.4122,0.10562 -2.64265,-0.95358 -2.74827,-2.36578z" fill="#ffe800" stroke="none" stroke-linecap="butt"/><path d="M223.50186,152.15477l-1.67718,2.54644" fill="none" stroke="#000000" stroke-linecap="round"/></g><g data-paper-data="{&quot;index&quot;:null}"><path d="M254.45516,157.2616c-1.4122,0.10562 -2.64265,-0.95356 -2.74827,-2.36577c-0.10562,-1.4122 0.95357,-2.64264 2.36578,-2.74827c1.4122,-0.10562 2.64265,0.95358 2.74827,2.36578c0.10562,1.41221 -0.95358,2.64264 -2.36578,2.74826z" fill="#ffe800" stroke="none" stroke-linecap="butt"/><path d="M256.11867,155.99276l-2.54643,-1.67718" fill="none" stroke="#000000" stroke-linecap="round"/></g><g data-paper-data="{&quot;index&quot;:null}"><path d="M254.33013,152.60048c-0.10562,-1.4122 0.95357,-2.64264 2.36578,-2.74827c1.4122,-0.10562 2.64265,0.95357 2.74827,2.36578c0.10562,1.41221 -0.95358,2.64265 -2.36578,2.74827c-1.4122,0.10562 -2.64265,-0.95358 -2.74827,-2.36578z" fill="#ffe800" stroke="none" stroke-linecap="butt"/><path d="M257.27615,151.71756l-1.67718,2.54644" fill="none" stroke="#000000" stroke-linecap="round"/></g></g><path d="M229.18436,207.59029c0,-1.034 0.53904,-1.93736 1.50546,-5.0156c0.12031,-0.38322 -1.60217,-2.22403 -1.4752,-2.63155c0.09322,-0.29918 2.49176,-2.04972 2.5877,-2.36123c1.65901,-5.38637 3.39696,-11.04217 3.87806,-18.34446c0.47772,-7.25106 -9.26238,-18.41936 -7.48894,-22.5435c0.34463,-0.80143 5.2619,4.2608 5.2619,4.2608l2.70517,-2.82542l3.82801,2.80354l3.69485,-2.942l2.51498,2.87189c0,0 4.6616,-4.80789 4.86549,-4.28746c1.61485,4.12193 -6.75427,15.40209 -6.35613,22.77357c0.3567,6.60422 1.62402,12.244 3.11207,17.45611c0.14125,0.49473 2.81653,2.13098 2.95395,2.59961c0.12482,0.42565 -1.8306,1.84616 -1.71086,2.24841c1.03484,3.47643 1.7548,4.84231 1.7548,5.93728c0,5.24436 -4.84234,9.49576 -10.81566,9.49576c-5.97332,0 -10.81566,-4.2514 -10.81566,-9.49576z" fill="#ffffff" stroke="#000000" stroke-width="2" stroke-linecap="butt"/><path d="M228.18518,219.2724v-5.37779h23.62969v5.37779z" fill="#ffffff" stroke="#000000" stroke-width="2" stroke-linecap="butt"/><path d="M200.38463,219.61538v-79.23077h79.23077v79.23077z" fill="none" stroke="none" stroke-width="0" stroke-linecap="butt"/><path d="M252.10186,172.32358c0,1.89536 -5.41818,3.43186 -12.10184,3.43186c-6.68366,0 -12.10184,-1.5365 -12.10184,-3.43186c0,-1.89536 5.41818,-3.43187 12.10184,-3.43187c6.68366,0 12.10184,1.5365 12.10184,3.43187z" fill="#ffffff" stroke="#000000" stroke-width="2" stroke-linecap="butt"/></g></g></svg>