<svg version="1.1" xmlns="http://www.w3.org/2000/svg" xmlns:xlink="http://www.w3.org/1999/xlink" width="79.23077" height="79.23077" viewBox="0,0,79.23077,79.23077"><g transform="translate(-200.38463,-140.38461)"><g data-paper-data="{&quot;isPaintingLayer&quot;:true}" fill-rule="nonzero" stroke-linejoin="miter" stroke-miterlimit="10" stroke-dasharray="" stroke-dashoffset="0" style="mix-blend-mode: normal"><path d="M226.1276,209.01909c0,0 5.30634,-5.32563 6.16622,-9.28855c0.8555,-3.94275 -1.69125,-13.75757 -1.69125,-13.75757l18.57116,0.16941c0,0 -2.01877,8.8715 -1.28418,12.94043c0.67794,3.7552 5.75915,9.9363 5.75915,9.9363z" fill="#ffffff" stroke="#000000" stroke-width="2" stroke-linecap="butt"/><path d="M222.71541,216.53247v-10.0687h34.5692v10.0687z" fill="#ffffff" stroke="#000000" stroke-width="2" stroke-linecap="butt"/><path d="M228.14133,172.45394c0,-6.54938 5.30932,-11.85869 11.85869,-11.85869c6.54938,0 11.85869,5.30932 11.85869,11.85869c0,6.54938 -5.30932,11.85869 -11.85869,11.85869c-6.54938,0 -11.85869,-5.30932 -11.85869,-11.85869z" fill="#ffffff" stroke="#000000" stroke-width="2" stroke-linecap="butt"/><path d="M226.23946,188.65793v-6.71247h27.52112v6.71247z" fill="#ffffff" stroke="#000000" stroke-width="2" stroke-linecap="butt"/><path d="M200.38463,219.61538v-79.23077h79.23077v79.23077z" fill="none" stroke="none" stroke-width="0" stroke-linecap="butt"/><g stroke-width="1.5"><path d="M230.14617,163.7557c0,0 -1.40819,-4.90399 -2.77284,-6.87639c-0.65758,-0.95043 -1.20668,-3.37006 -2.44732,-4.25465c-0.6385,-0.45525 -1.18022,0.67762 -1.8639,1.68405c-1.01351,1.49196 -2.36413,3.79312 -2.36413,3.79312c0,0 0.03697,-3.11395 0.63163,-5.47276c0.65689,-2.60563 1.1982,-8.57477 2.30109,-8.69322c1.08261,-0.11627 3.0082,-0.93047 5.33794,-0.09764c2.72555,0.97432 10.54709,9.20505 10.54709,9.20505l-1.1762,6.92125c0,0 -2.24927,-0.12192 -3.45139,0.43431c-1.47341,0.68177 -4.74197,3.35686 -4.74197,3.35686z" fill="#3100ff" stroke="#000000" stroke-linecap="butt"/><path d="M244.03213,160.39925c-1.20213,-0.55624 -3.45139,-0.43431 -3.45139,-0.43431l-1.17621,-6.92125c0,0 7.82155,-8.23074 10.5471,-9.20505c2.32974,-0.83283 4.25534,-0.01863 5.33795,0.09764c1.10289,0.11845 1.6442,6.08759 2.30109,8.69322c0.59467,2.3588 0.63163,5.47276 0.63163,5.47276c0,0 -1.35063,-2.30117 -2.36413,-3.79312c-0.68368,-1.00643 -1.2254,-2.1393 -1.8639,-1.68405c-1.24064,0.88459 -1.78974,3.30421 -2.44732,4.25465c-1.36466,1.9724 -2.77284,6.87639 -2.77284,6.87639c0,0 -3.26855,-2.67509 -4.74196,-3.35686z" data-paper-data="{&quot;index&quot;:null}" fill="#ff0000" stroke="#000000" stroke-linecap="butt"/><g data-paper-data="{&quot;index&quot;:null}"><path d="M258.11854,162.36605c-1.45008,0 -2.62561,-1.42088 -2.62561,-3.17362c0,-1.75274 1.17552,-3.17361 2.62561,-3.17361c1.45008,0 2.6256,1.42087 2.6256,3.17361c0,1.75274 -1.17552,3.17362 -2.6256,3.17362z" fill="#000000" stroke="none" stroke-linecap="butt"/><path d="M257.66853,158.37467l1.90705,2.98807" fill="none" stroke="#ffffff" stroke-linecap="round"/></g><path d="M228.82728,167.1849c0,0 -0.54984,-6.96186 -1.81592,-10.06955c-0.61008,-1.49749 -0.69065,-4.87633 -2.08131,-6.51231c-0.71571,-0.84196 -1.72361,0.43219 -2.88399,1.48614c-1.72017,1.56239 -4.09505,4.05412 -4.09505,4.05412c0,0 0.8697,-4.06186 2.27025,-6.92034c1.54709,-3.15759 4.23493,-5.77316 5.70983,-5.50321c1.44778,0.26498 4.56349,5.595 7.39342,7.58291c3.31071,2.32564 6.26749,1.33604 6.26749,1.33604l0.56624,13.03967c0,0 -2.97774,0.12867 -4.69801,0.39354c-3.02762,-0.17666 -6.63295,1.11299 -6.63295,1.11299z" fill="#ff0000" stroke="#000000" stroke-linecap="butt"/><path d="M242.5409,165.89034c-1.72027,-0.26487 -2.27796,-0.12986 -2.27796,-0.12986l-0.93467,-13.2031c0,0 2.95679,0.98959 6.26749,-1.33604c2.82993,-1.98791 5.94565,-7.31793 7.39343,-7.58291c1.4749,-0.26995 4.16273,2.34562 5.70983,5.50321c1.40055,2.85848 2.27024,6.92033 2.27024,6.92033c0,0 -2.37488,-2.49173 -4.09505,-4.05412c-1.16037,-1.05395 -2.16828,-2.3281 -2.88399,-1.48614c-1.39067,1.63598 -1.47123,5.01482 -2.08131,6.51231c-1.26608,3.10769 -1.81592,10.06956 -1.81592,10.06956c0,0 -4.85274,-1.44004 -7.55209,-1.21325z" data-paper-data="{&quot;index&quot;:null}" fill="#3100ff" stroke="#000000" stroke-linecap="butt"/><g data-paper-data="{&quot;index&quot;:null}"><path d="M259.21847,156.9722c0,-1.75274 1.17552,-3.17362 2.6256,-3.17362c1.45008,0 2.6256,1.42087 2.6256,3.17362c0,1.75274 -1.17552,3.17361 -2.6256,3.17361c-1.45008,0 -2.6256,-1.42087 -2.6256,-3.17361z" fill="#000000" stroke="none" stroke-linecap="butt"/><path d="M260.04855,158.73335l2.4721,-2.30509" fill="none" stroke="#ffffff" stroke-linecap="round"/></g><g data-paper-data="{&quot;index&quot;:null}"><path d="M221.01153,162.6787c-1.84285,0 -3.33678,-1.49392 -3.33678,-3.33678c0,-1.84285 1.49392,-3.33678 3.33678,-3.33678c1.84285,0 3.33678,1.49393 3.33678,3.33678c0,1.84285 -1.49393,3.33678 -3.33678,3.33678z" fill="#ffe800" stroke="none" stroke-linecap="butt"/><path d="M223.29341,161.19361l-3.1417,-2.4236" fill="none" stroke="#000000" stroke-linecap="round"/></g><g data-paper-data="{&quot;index&quot;:null}"><path d="M214.69709,157.59949c-0.13745,-1.83772 1.24089,-3.43891 3.07862,-3.57636c1.83772,-0.13745 3.43891,1.24089 3.57636,3.07862c0.13745,1.83772 -1.24089,3.43891 -3.07862,3.57636c-1.83772,0.13745 -3.43891,-1.2409 -3.57636,-3.07862z" fill="#ffe800" stroke="none" stroke-linecap="butt"/><path d="M218.53077,156.45053l-2.18253,3.31371" fill="none" stroke="#000000" stroke-linecap="round"/></g><g data-paper-data="{&quot;index&quot;:null}"><path d="M258.81067,163.09612c-1.83772,0.13745 -3.43891,-1.24089 -3.57636,-3.07862c-0.13745,-1.83772 1.24089,-3.43891 3.07862,-3.57636c1.83772,-0.13745 3.43891,1.24089 3.57636,3.07862c0.13745,1.83772 -1.2409,3.43891 -3.07862,3.57636z" fill="#ffe800" stroke="none" stroke-linecap="butt"/><path d="M260.97543,161.44496l-3.31371,-2.18253" fill="none" stroke="#000000" stroke-linecap="round"/></g><g data-paper-data="{&quot;index&quot;:null}"><path d="M258.64798,157.03055c-0.13745,-1.83772 1.24089,-3.43891 3.07862,-3.57636c1.83772,-0.13745 3.43891,1.24089 3.57636,3.07862c0.13745,1.83772 -1.2409,3.43891 -3.07862,3.57636c-1.83772,0.13745 -3.43891,-1.2409 -3.57636,-3.07862z" fill="#ffe800" stroke="none" stroke-linecap="butt"/><path d="M262.48166,155.88159l-2.18253,3.31371" fill="none" stroke="#000000" stroke-linecap="round"/></g></g></g></g></svg>