<svg version="1.1" xmlns="http://www.w3.org/2000/svg" xmlns:xlink="http://www.w3.org/1999/xlink" width="46.1311" height="77.25657" viewBox="0,0,46.1311,77.25657"><g transform="translate(-216.93445,-142.59844)"><g data-paper-data="{&quot;isPaintingLayer&quot;:true}" fill="#000000" fill-rule="nonzero" stroke="#ffffff" stroke-width="2" stroke-linecap="butt" stroke-linejoin="miter" stroke-miterlimit="10" stroke-dasharray="" stroke-dashoffset="0" style="mix-blend-mode: normal"><path d="M225.79397,204.81663c0,0 3.61299,-12.84073 6.54301,-18.2665c2.4959,-4.62188 9.94447,-12.26484 9.94447,-12.26484c0,0 -5.93148,-2.08283 -10.51307,-1.46194c-4.59372,0.62253 -7.55422,4.52 -10.17831,2.70008c-4.88866,-3.39052 -3.59194,-6.56234 0.68477,-11.24114c2.00875,-2.19761 5.97885,-3.11141 7.1033,-6.26508c1.07968,-3.02811 5.00688,-4.64805 6.35428,-5.2161c0.35421,-0.14933 0.70632,-2.28474 0.70632,-2.28474c0,0 3.40232,-0.6295 3.99652,-1.71397c0.87619,-1.59914 0.69551,-3.96444 0.69551,-3.96444c0,0 1.68838,1.36917 4.35849,4.30388c4.31988,3.18487 10.27804,6.45459 12.72139,10.56048c5.01301,8.42405 3.26603,18.43981 3.0156,21.6059c-2.7102,7.35609 -7.76462,23.50842 -7.76462,23.50842z"/><path d="M217.93446,218.85502v-16.92073h44.1311v16.92073z"/></g></g></svg>