<svg version="1.1" xmlns="http://www.w3.org/2000/svg" xmlns:xlink="http://www.w3.org/1999/xlink" width="79.23077" height="79.23077" viewBox="0,0,79.23077,79.23077"><g transform="translate(-200.38461,-140.3846)"><g data-paper-data="{&quot;isPaintingLayer&quot;:true}" fill-rule="nonzero" stroke-linecap="butt" stroke-linejoin="miter" stroke-miterlimit="10" stroke-dasharray="" stroke-dashoffset="0" style="mix-blend-mode: normal"><path d="M226.19382,200.35755c0,0 5.281,-5.30019 6.13678,-9.2442c0.85142,-3.92393 -1.68317,-13.69188 -1.68317,-13.69188l18.48247,0.1686c0,0 -2.00913,8.82914 -1.27805,12.87863c0.67471,3.73727 5.73165,9.88885 5.73165,9.88885z" fill="#000000" stroke="#ffffff" stroke-width="2"/><path d="M222.79794,207.83506v-10.02062h34.40412v10.02062z" fill="#000000" stroke="#ffffff" stroke-width="2"/><path d="M228.19794,163.96701c0,-6.5181 5.28397,-11.80206 11.80206,-11.80206c6.5181,0 11.80206,5.28397 11.80206,11.80206c0,6.5181 -5.28397,11.80206 -11.80206,11.80206c-6.5181,0 -11.80206,-5.28397 -11.80206,-11.80206z" fill="#000000" stroke="#ffffff" stroke-width="2"/><path d="M226.30515,180.09363v-6.68041h27.3897v6.68041z" fill="#000000" stroke="#ffffff" stroke-width="2"/><path d="M200.38462,219.61538v-79.23077h79.23077v79.23077z" fill="none" stroke="none" stroke-width="0"/></g></g></svg>