<svg version="1.1" xmlns="http://www.w3.org/2000/svg" xmlns:xlink="http://www.w3.org/1999/xlink" width="79.23077" height="79.73175" viewBox="0,0,79.23077,79.73175"><g transform="translate(-200.38461,-140.3846)"><g data-paper-data="{&quot;isPaintingLayer&quot;:true}" fill-rule="nonzero" stroke-linecap="butt" stroke-linejoin="miter" stroke-miterlimit="10" stroke-dasharray="" stroke-dashoffset="0" style="mix-blend-mode: normal"><path d="M234.14921,176.47796v-6.73159h12.39225v6.73159z" fill="#000000" stroke="#ffffff" stroke-width="2"/><path d="M221.45099,210.13999c0,0 2.39125,-4.88492 4.4796,-8.70721c0.47566,-0.8706 -0.64087,-2.5074 -0.64087,-2.5074c0,0 2.49934,-0.70396 2.71666,-1.0252c7.12938,-5.71146 7.84075,-12.97079 7.42674,-17.46355c-0.23349,-2.53377 -16.65348,-4.71314 -0.97792,-4.18762c2.31869,0.07773 5.48492,0.11284 12.23925,-0.04347c16.42351,-0.38008 -1.28995,1.65383 -1.441,4.09375c-0.30916,4.99374 0.30721,13.28031 6.93268,17.42017c0.66229,0.41383 2.56833,1.41991 2.56833,1.41991c0,0 -1.16556,1.51903 -0.83116,2.05768c2.41533,3.89059 4.70442,8.94294 4.70442,8.94294c0,0 -1.87694,2.42616 -4.37751,3.05324c-6.44258,1.61561 -21.36441,2.5547 -28.07654,0.02713c-1.88067,-0.7082 -4.72268,-3.08037 -4.72268,-3.08037z" fill="#000000" stroke="#ffffff" stroke-width="2"/><path d="M222.23451,219.11635v-5.66173h35.53098v5.66173z" fill="#000000" stroke="#ffffff" stroke-width="2"/><path d="M249.15417,161.10294c0,4.60494 -4.08084,8.33799 -9.11482,8.33799c-5.03397,0 -9.11482,-3.73305 -9.11482,-8.33799c0,-4.60494 8.96183,-13.0807 8.96183,-13.0807c0,0 9.26781,8.47575 9.26781,13.0807z" fill="#000000" stroke="#ffffff" stroke-width="2"/><path d="M235.83211,145.65088c0,-2.3236 1.88365,-4.20725 4.20725,-4.20725c2.3236,0 4.20725,1.88365 4.20725,4.20725c0,2.3236 -1.88365,4.20724 -4.20725,4.20724c-2.3236,0 -4.20725,-1.88365 -4.20725,-4.20724z" fill="#000000" stroke="#ffffff" stroke-width="2"/><path d="M230.97576,169.8999v-2.90682h17.8999v2.90682z" fill="#000000" stroke="#ffffff" stroke-width="2"/><path d="M200.38462,219.61538v-79.23077h79.23077v79.23077z" fill="none" stroke="none" stroke-width="0"/></g></g></svg>