<svg version="1.1" xmlns="http://www.w3.org/2000/svg" xmlns:xlink="http://www.w3.org/1999/xlink" width="36.40412" height="57.67011" viewBox="0,0,36.40412,57.67011"><g transform="translate(-221.79794,-151.16494)"><g data-paper-data="{&quot;isPaintingLayer&quot;:true}" fill="#000000" fill-rule="nonzero" stroke="#ffffff" stroke-width="2" stroke-linecap="butt" stroke-linejoin="miter" stroke-miterlimit="10" stroke-dasharray="" stroke-dashoffset="0" style="mix-blend-mode: normal"><path d="M226.19382,200.35755c0,0 5.281,-5.30019 6.13678,-9.2442c0.85142,-3.92393 -1.68317,-13.69188 -1.68317,-13.69188l18.48247,0.1686c0,0 -2.00913,8.82914 -1.27805,12.87863c0.67471,3.73727 5.73165,9.88885 5.73165,9.88885z"/><path d="M222.79794,207.83506v-10.02062h34.40412v10.02062z"/><path d="M228.19794,163.96701c0,-6.5181 5.28397,-11.80206 11.80206,-11.80206c6.5181,0 11.80206,5.28397 11.80206,11.80206c0,6.5181 -5.28397,11.80206 -11.80206,11.80206c-6.5181,0 -11.80206,-5.28397 -11.80206,-11.80206z"/><path d="M226.30515,180.09363v-6.68041h27.3897v6.68041z"/></g></g></svg>