<svg version="1.1" xmlns="http://www.w3.org/2000/svg" xmlns:xlink="http://www.w3.org/1999/xlink" width="48.35" height="77.00001" viewBox="0,0,48.35,77.00001"><g transform="translate(-215.825,-141.49999)"><g data-paper-data="{&quot;isPaintingLayer&quot;:true}" fill="#ffffff" fill-rule="nonzero" stroke="#000000" stroke-width="2" stroke-linecap="butt" stroke-linejoin="miter" stroke-miterlimit="10" stroke-dasharray="" stroke-dashoffset="0" style="mix-blend-mode: normal"><path d="M221.40001,207.42614c0,0 7.11468,-7.14054 8.2676,-12.45399c1.14705,-5.2864 -2.26761,-18.446 -2.26761,-18.446l24.9,0.22714c0,0 -2.70674,11.89481 -1.72182,17.35038c0.90898,5.03493 7.72181,13.32248 7.72181,13.32248z"/><path d="M216.825,217.5v-13.5h46.35v13.5z"/><path d="M224.1,158.39999c0,-8.78133 7.11868,-15.9 15.9,-15.9c8.78133,0 15.9,7.11868 15.9,15.9c0,8.78133 -7.11868,15.9 -15.9,15.9c-8.78133,0 -15.9,-7.11868 -15.9,-15.9z"/><path d="M221.55,180.12614v-9h36.90001v9z"/></g></g></svg>