<svg version="1.1" xmlns="http://www.w3.org/2000/svg" xmlns:xlink="http://www.w3.org/1999/xlink" width="79.23077" height="80.10252" viewBox="0,0,79.23077,80.10252"><g transform="translate(-200.38462,-140.16988)"><g data-paper-data="{&quot;isPaintingLayer&quot;:true}" fill-rule="nonzero" stroke-linecap="butt" stroke-linejoin="miter" stroke-miterlimit="10" stroke-dasharray="" stroke-dashoffset="0" style="mix-blend-mode: normal"><path d="M243.76765,144.64207c0,1.91764 -1.68683,3.47219 -3.76763,3.47219c-2.08081,0 -3.76763,-1.55455 -3.76763,-3.47219c0,-1.91764 1.68683,-3.47219 3.76763,-3.47219c2.08081,0 3.76763,1.55455 3.76763,3.47219z" fill="#000000" stroke="#ffffff" stroke-width="2"/><path d="M231.06112,151.29078c0,-2.89681 4.00208,-5.24514 8.9389,-5.24514c4.93682,0 8.9389,2.34833 8.9389,5.24514c0,2.89681 -4.00208,5.24514 -8.9389,5.24514c-4.93682,0 -8.9389,-2.34833 -8.9389,-5.24514z" fill="#000000" stroke="#ffffff" stroke-width="2"/><path d="M229.18436,206.27039c0,-1.17772 0.53904,-2.20665 1.50546,-5.71276c0.12031,-0.43649 -1.60217,-2.53317 -1.4752,-2.99733c0.09322,-0.34077 2.49176,-2.33463 2.5877,-2.68944c1.65901,-6.13507 3.39696,-12.57702 3.87806,-20.89432c0.47772,-8.25895 -9.26238,-20.97963 -7.48894,-25.67703c0.34463,-0.91283 5.2619,4.85305 5.2619,4.85305l2.70517,-3.21815l3.82801,3.19323l3.69485,-3.35093l2.51498,3.27108c0,0 4.6616,-5.47618 4.86549,-4.88341c1.61485,4.69488 -6.75427,17.54297 -6.35613,25.93907c0.3567,7.5222 1.62402,13.9459 3.11207,19.88249c0.14125,0.5635 2.81653,2.42718 2.95395,2.96095c0.12482,0.48482 -1.8306,2.10277 -1.71086,2.56094c1.03484,3.95965 1.7548,5.51539 1.7548,6.76256c0,5.97332 -4.84234,10.81566 -10.81566,10.81566c-5.97332,0 -10.81566,-4.84234 -10.81566,-10.81566z" fill="#000000" stroke="#ffffff" stroke-width="2"/><path d="M228.18518,219.2724v-5.37779h23.62969v5.37779z" fill="#000000" stroke="#ffffff" stroke-width="2"/><path d="M200.38463,219.61538v-79.23077h79.23077v79.23077z" fill="none" stroke="none" stroke-width="0"/><path d="M252.10186,172.32358c0,1.89536 -5.41818,3.43186 -12.10184,3.43186c-6.68366,0 -12.10184,-1.5365 -12.10184,-3.43186c0,-1.89536 5.41818,-3.43187 12.10184,-3.43187c6.68366,0 12.10184,1.5365 12.10184,3.43187z" fill="#000000" stroke="#ffffff" stroke-width="2"/></g></g></svg>