<svg version="1.1" xmlns="http://www.w3.org/2000/svg" xmlns:xlink="http://www.w3.org/1999/xlink" width="79.23077" height="79.7279" viewBox="0,0,79.23077,79.7279"><g transform="translate(-200.38464,-140.38463)"><g data-paper-data="{&quot;isPaintingLayer&quot;:true}" fill-rule="nonzero" stroke-linecap="butt" stroke-linejoin="miter" stroke-miterlimit="10" stroke-dasharray="" stroke-dashoffset="0" style="mix-blend-mode: normal"><path d="M237.55238,158.89939c0,0 0.49438,-5.15006 0.49438,-7.70558c0,-0.21369 -6.06935,0.35068 -6.06935,0.35068l0.05436,-4.22334c0,0 6.01499,0.68635 6.01499,0.49438c0,-2.13389 -0.49438,-4.17277 -0.49438,-4.17277h4.97173c0,0 -0.49438,2.2539 -0.49438,4.50236c0,0.40936 5.9046,-0.39012 5.9046,-0.39012l-0.05441,3.8508c0,0 -5.8502,-0.66434 -5.8502,-0.41199c0,2.55552 0.49438,7.70558 0.49438,7.70558z" fill="#ffffff" stroke="#000000" stroke-width="2"/><path d="M235.10977,171.19973c0,0 -6.84098,-12.39557 -5.85256,-12.41749c5.19226,-0.11514 19.21959,0.15302 21.64448,0c1.05589,-0.06663 -5.68342,12.41749 -5.68342,12.41749z" fill="#ffffff" stroke="#000000" stroke-width="2"/><path d="M232.33537,173.27021v-3.70598h15.32929v3.70598z" fill="#ffffff" stroke="#000000" stroke-width="2"/><path d="M200.38465,219.6154v-79.23077h79.23077v79.23077z" fill="none" stroke="none" stroke-width="0"/><path d="M225.09508,219.11252c0,0 -1.70504,-5.23873 1.01471,-8.53038c1.37174,-1.66018 5.04152,-2.47675 6.47994,-6.0612c6.00528,-14.96475 3.52416,-27.91434 3.52416,-27.91434h8.04629c0,0 -1.4659,12.59266 3.56246,27.37031c1.00456,2.95226 5.11332,5.49774 6.41594,6.70968c2.54432,2.84092 0.76641,8.42594 0.76641,8.42594z" fill="#ffffff" stroke="#000000" stroke-width="2"/><path d="M223.97909,219.03014v-3.71879h32.05719v3.7188z" fill="#ffffff" stroke="#000000" stroke-width="2"/><path d="M229.21898,178.85145v-5.74024h21.56208v5.74024z" fill="#ffffff" stroke="#000000" stroke-width="2"/></g></g></svg>