<svg version="1.1" xmlns="http://www.w3.org/2000/svg" xmlns:xlink="http://www.w3.org/1999/xlink" width="79.23077" height="79.23077" viewBox="0,0,79.23077,79.23077"><g transform="translate(-200.38461,-140.3846)"><g data-paper-data="{&quot;isPaintingLayer&quot;:true}" fill-rule="nonzero" stroke-linecap="butt" stroke-linejoin="miter" stroke-miterlimit="10" stroke-dasharray="" stroke-dashoffset="0" style="mix-blend-mode: normal"><path d="M226.12758,200.45523c0,0 5.30634,-5.32563 6.16622,-9.28855c0.8555,-3.94275 -1.69125,-13.75757 -1.69125,-13.75757l18.57116,0.16941c0,0 -2.01877,8.8715 -1.28418,12.94043c0.67794,3.7552 5.75915,9.9363 5.75915,9.9363z" fill="#ffffff" stroke="#000000" stroke-width="2"/><path d="M222.7154,207.96861v-10.0687h34.5692v10.0687z" fill="#ffffff" stroke="#000000" stroke-width="2"/><path d="M228.14131,163.89008c0,-6.54938 5.30932,-11.85869 11.85869,-11.85869c6.54938,0 11.85869,5.30932 11.85869,11.85869c0,6.54938 -5.30932,11.85869 -11.85869,11.85869c-6.54938,0 -11.85869,-5.30932 -11.85869,-11.85869z" fill="#ffffff" stroke="#000000" stroke-width="2"/><path d="M226.23944,180.09408v-6.71247h27.52112v6.71247z" fill="#ffffff" stroke="#000000" stroke-width="2"/><path d="M200.38462,219.61538v-79.23077h79.23077v79.23077z" fill="none" stroke="none" stroke-width="0"/></g></g></svg>